<svg width="514" height="514" viewBox="0 0 514 514" fill="none" xmlns="http://www.w3.org/2000/svg">
<mask id="path-1-inside-1_554_3355" fill="white">
<path fill-rule="evenodd" clip-rule="evenodd" d="M13.4923 0.507812H0.50769V13.4924H13.4923V0.507812ZM13.4923 500.507H0.50769V513.492H13.4923V500.507ZM500.508 0.507812H513.492V13.4924H500.508V0.507812ZM513.492 500.507H500.508V513.492H513.492V500.507Z"/>
</mask>
<path d="M0.50769 0.507812V-5.9845H-5.98462V0.507812H0.50769ZM13.4923 0.507812H19.9846V-5.9845H13.4923V0.507812ZM0.50769 13.4924H-5.98462V19.9847H0.50769V13.4924ZM13.4923 13.4924V19.9847H19.9846V13.4924H13.4923ZM0.50769 500.507V494.015H-5.98462V500.507H0.50769ZM13.4923 500.507H19.9846V494.015H13.4923V500.507ZM0.50769 513.492H-5.98462V519.984H0.50769V513.492ZM13.4923 513.492V519.984H19.9846V513.492H13.4923ZM513.492 0.507812H519.985V-5.9845H513.492V0.507812ZM500.508 0.507812V-5.9845H494.015V0.507812H500.508ZM513.492 13.4924V19.9847H519.985V13.4924H513.492ZM500.508 13.4924H494.015V19.9847H500.508V13.4924ZM500.508 500.507V494.015H494.015V500.507H500.508ZM513.492 500.507H519.985V494.015H513.492V500.507ZM500.508 513.492H494.015V519.984H500.508V513.492ZM513.492 513.492V519.984H519.985V513.492H513.492ZM0.50769 7.00012H13.4923V-5.9845H0.50769V7.00012ZM7 13.4924V0.507812H-5.98462V13.4924H7ZM13.4923 7.00012H0.50769V19.9847H13.4923V7.00012ZM7 0.507812V13.4924H19.9846V0.507812H7ZM0.50769 507H13.4923V494.015H0.50769V507ZM7 513.492V500.507H-5.98462V513.492H7ZM13.4923 507H0.50769V519.984H13.4923V507ZM7 500.507V513.492H19.9846V500.507H7ZM513.492 -5.9845H500.508V7.00012H513.492V-5.9845ZM519.985 13.4924V0.507812H507V13.4924H519.985ZM500.508 19.9847H513.492V7.00012H500.508V19.9847ZM494.015 0.507812V13.4924H507V0.507812H494.015ZM500.508 507H513.492V494.015H500.508V507ZM507 513.492V500.507H494.015V513.492H507ZM513.492 507H500.508V519.984H513.492V507ZM507 500.507V513.492H519.985V500.507H507Z" fill="white" mask="url(#path-1-inside-1_554_3355)"/>
<path fill-rule="evenodd" clip-rule="evenodd" d="M11.8692 2.13089H2.13077V11.8694H11.8692V2.13089ZM2.13077 0.507812H0.50769V2.13089V11.8694V13.4924H2.13077H5.37692V500.507H2.13077H0.50769V502.131V511.869V513.492H2.13077H11.8692H13.4923V511.869V508.623H500.508V511.869V513.492H502.131H511.869H513.492V511.869V502.131V500.507H511.869H508.623V13.4924H511.869H513.492V11.8694V2.13089V0.507812H511.869H502.131H500.508V2.13089V5.37704H13.4923V2.13089V0.507812H11.8692H2.13077ZM507 500.507V13.4924H502.131H500.508V11.8694V7.00012H13.4923V11.8694V13.4924H11.8692H7V500.507H11.8692H13.4923V502.131V507H500.508V502.131V500.507H502.131H507ZM2.13077 511.869V502.131H11.8692V511.869H2.13077ZM511.869 2.13089H502.131V11.8694H511.869V2.13089ZM502.131 511.869V502.131H511.869V511.869H502.131Z" fill="#18A0FB"/>
</svg>
