<svg width="1902" height="882" viewBox="0 0 1902 882" fill="none" xmlns="http://www.w3.org/2000/svg">
<g filter="url(#filter0_d_645_3355)">
<rect width="1600" height="942" transform="translate(160 24)" fill="black"/>
<g clip-path="url(#clip0_645_3355)">
<rect x="160" y="98" width="1600" height="986" fill="white"/>
</g>
<mask id="path-2-inside-1_645_3355" fill="white">
<path fill-rule="evenodd" clip-rule="evenodd" d="M423 26V57H1760V97V98H160V97V57H199V26V24H423V26Z"/>
</mask>
<path d="M423 57H422V58H423V57ZM1760 57H1761V56H1760V57ZM1760 98V99H1761V98H1760ZM160 98H159V99H160V98ZM160 57V56H159V57H160ZM199 57V58H200V57H199ZM199 24V23H198V24H199ZM423 24H424V23H423V24ZM424 57V26H422V57H424ZM1760 56H423V58H1760V56ZM1761 97V57H1759V97H1761ZM1761 98V97H1759V98H1761ZM160 99H1760V97H160V99ZM159 97V98H161V97H159ZM159 57V97H161V57H159ZM199 56H160V58H199V56ZM198 26V57H200V26H198ZM198 24V26H200V24H198ZM423 23H199V25H423V23ZM424 26V24H422V26H424Z" fill="white" fill-opacity="0.4" mask="url(#path-2-inside-1_645_3355)"/>
<rect x="346" y="62" width="930" height="30" rx="2" fill="#2C2C2C"/>
<path opacity="0.5" d="M402.087 78.7344V83H400.997V73.5455H402.087V77.017H402.179C402.345 76.6508 402.594 76.36 402.927 76.1445C403.262 75.926 403.709 75.8168 404.266 75.8168C404.749 75.8168 405.172 75.9137 405.535 76.1076C405.898 76.2984 406.18 76.5923 406.38 76.9893C406.583 77.3833 406.685 77.8849 406.685 78.4943V83H405.595V78.5682C405.595 78.005 405.449 77.5695 405.157 77.2617C404.867 76.9509 404.466 76.7955 403.952 76.7955C403.595 76.7955 403.275 76.8709 402.991 77.0217C402.711 77.1725 402.49 77.3925 402.327 77.6818C402.167 77.9711 402.087 78.322 402.087 78.7344ZM411.762 75.9091V76.8324H408.087V75.9091H411.762ZM409.158 74.2102H410.247V80.9688C410.247 81.2765 410.292 81.5073 410.381 81.6612C410.474 81.812 410.591 81.9136 410.732 81.9659C410.877 82.0152 411.029 82.0398 411.189 82.0398C411.309 82.0398 411.408 82.0336 411.485 82.0213C411.562 82.0059 411.623 81.9936 411.669 81.9844L411.891 82.9631C411.817 82.9908 411.714 83.0185 411.582 83.0462C411.449 83.0769 411.282 83.0923 411.078 83.0923C410.771 83.0923 410.469 83.0262 410.174 82.8938C409.881 82.7615 409.638 82.5599 409.444 82.2891C409.253 82.0182 409.158 81.6766 409.158 81.2642V74.2102ZM416.484 75.9091V76.8324H412.81V75.9091H416.484ZM413.881 74.2102H414.97V80.9688C414.97 81.2765 415.015 81.5073 415.104 81.6612C415.196 81.812 415.313 81.9136 415.455 81.9659C415.599 82.0152 415.752 82.0398 415.912 82.0398C416.032 82.0398 416.13 82.0336 416.207 82.0213C416.284 82.0059 416.346 81.9936 416.392 81.9844L416.614 82.9631C416.54 82.9908 416.437 83.0185 416.304 83.0462C416.172 83.0769 416.004 83.0923 415.801 83.0923C415.493 83.0923 415.192 83.0262 414.896 82.8938C414.604 82.7615 414.361 82.5599 414.167 82.2891C413.976 82.0182 413.881 81.6766 413.881 81.2642V74.2102ZM418.123 85.6591V75.9091H419.176V77.0355H419.305C419.385 76.9124 419.496 76.7554 419.637 76.5646C419.782 76.3707 419.988 76.1984 420.256 76.0476C420.527 75.8937 420.893 75.8168 421.355 75.8168C421.952 75.8168 422.478 75.966 422.934 76.2646C423.389 76.5631 423.744 76.9863 424 77.5341C424.255 78.0819 424.383 78.7282 424.383 79.473C424.383 80.224 424.255 80.8749 424 81.4258C423.744 81.9736 423.391 82.3983 422.938 82.6999C422.486 82.9985 421.964 83.1477 421.373 83.1477C420.918 83.1477 420.553 83.0723 420.279 82.9215C420.005 82.7676 419.794 82.5937 419.647 82.3999C419.499 82.2029 419.385 82.0398 419.305 81.9105H419.213V85.6591H418.123ZM419.194 79.4545C419.194 79.9901 419.273 80.4625 419.43 80.8718C419.587 81.2781 419.816 81.5966 420.117 81.8274C420.419 82.0552 420.788 82.169 421.225 82.169C421.681 82.169 422.061 82.049 422.366 81.8089C422.673 81.5658 422.904 81.2396 423.058 80.8303C423.215 80.4179 423.294 79.9593 423.294 79.4545C423.294 78.956 423.217 78.5066 423.063 78.1065C422.912 77.7034 422.683 77.3848 422.375 77.1509C422.07 76.9139 421.687 76.7955 421.225 76.7955C420.782 76.7955 420.41 76.9078 420.108 77.1325C419.807 77.354 419.579 77.6649 419.425 78.065C419.271 78.462 419.194 78.9252 419.194 79.4545ZM431.068 77.4972L430.089 77.7741C430.027 77.611 429.937 77.4525 429.817 77.2987C429.7 77.1417 429.54 77.0124 429.337 76.9109C429.133 76.8093 428.873 76.7585 428.556 76.7585C428.122 76.7585 427.761 76.8585 427.472 77.0586C427.185 77.2556 427.042 77.5064 427.042 77.8111C427.042 78.0819 427.141 78.2958 427.338 78.4528C427.535 78.6097 427.842 78.7405 428.261 78.8452L429.313 79.1037C429.947 79.2576 430.42 79.493 430.731 79.81C431.042 80.1239 431.197 80.5286 431.197 81.0241C431.197 81.4304 431.08 81.7936 430.846 82.1136C430.615 82.4337 430.292 82.6861 429.877 82.8707C429.461 83.0554 428.978 83.1477 428.427 83.1477C427.704 83.1477 427.105 82.9908 426.631 82.6768C426.157 82.3629 425.857 81.9044 425.731 81.3011L426.765 81.0426C426.864 81.4242 427.05 81.7105 427.324 81.9013C427.601 82.0921 427.962 82.1875 428.409 82.1875C428.916 82.1875 429.32 82.0798 429.618 81.8643C429.92 81.6458 430.071 81.3842 430.071 81.0795C430.071 80.8333 429.984 80.6271 429.812 80.4609C429.64 80.2917 429.375 80.1655 429.018 80.0824L427.836 79.8054C427.187 79.6515 426.71 79.413 426.405 79.0898C426.103 78.7636 425.953 78.3558 425.953 77.8665C425.953 77.4664 426.065 77.1125 426.29 76.8047C426.517 76.4969 426.827 76.2553 427.218 76.0799C427.612 75.9045 428.058 75.8168 428.556 75.8168C429.258 75.8168 429.809 75.9706 430.209 76.2784C430.612 76.5862 430.898 76.9924 431.068 77.4972ZM433.631 83.0739C433.403 83.0739 433.208 82.9923 433.045 82.8292C432.882 82.6661 432.8 82.4706 432.8 82.2429C432.8 82.0152 432.882 81.8197 433.045 81.6566C433.208 81.4935 433.403 81.4119 433.631 81.4119C433.859 81.4119 434.054 81.4935 434.217 81.6566C434.38 81.8197 434.462 82.0152 434.462 82.2429C434.462 82.3937 434.424 82.5322 434.347 82.6584C434.273 82.7846 434.173 82.8861 434.047 82.9631C433.923 83.0369 433.785 83.0739 433.631 83.0739ZM433.631 77.8111C433.403 77.8111 433.208 77.7295 433.045 77.5664C432.882 77.4033 432.8 77.2079 432.8 76.9801C432.8 76.7524 432.882 76.5569 433.045 76.3938C433.208 76.2307 433.403 76.1491 433.631 76.1491C433.859 76.1491 434.054 76.2307 434.217 76.3938C434.38 76.5569 434.462 76.7524 434.462 76.9801C434.462 77.1309 434.424 77.2694 434.347 77.3956C434.273 77.5218 434.173 77.6233 434.047 77.7003C433.923 77.7741 433.785 77.8111 433.631 77.8111ZM439.759 73.1023L436.713 84.4219H435.715L438.762 73.1023H439.759ZM444.393 73.1023L441.346 84.4219H440.349L443.396 73.1023H444.393ZM445.685 83V75.9091H446.737V77.017H446.83C446.977 76.6385 447.216 76.3446 447.545 76.1353C447.874 75.9229 448.27 75.8168 448.732 75.8168C449.199 75.8168 449.589 75.9229 449.9 76.1353C450.213 76.3446 450.458 76.6385 450.634 77.017H450.707C450.889 76.6508 451.161 76.36 451.525 76.1445C451.888 75.926 452.323 75.8168 452.831 75.8168C453.465 75.8168 453.984 76.0153 454.387 76.4123C454.79 76.8062 454.991 77.4202 454.991 78.2543V83H453.902V78.2543C453.902 77.7311 453.759 77.3571 453.473 77.1325C453.186 76.9078 452.849 76.7955 452.462 76.7955C451.963 76.7955 451.577 76.9463 451.303 77.2479C451.029 77.5464 450.892 77.925 450.892 78.3835V83H449.784V78.1435C449.784 77.7403 449.653 77.4156 449.392 77.1694C449.13 76.9201 448.793 76.7955 448.381 76.7955C448.098 76.7955 447.833 76.8709 447.587 77.0217C447.344 77.1725 447.147 77.3817 446.996 77.6495C446.848 77.9142 446.774 78.2204 446.774 78.5682V83H445.685ZM461.452 80.1009V75.9091H462.542V83H461.452V81.7997H461.378C461.212 82.1598 460.954 82.466 460.603 82.7184C460.252 82.9677 459.809 83.0923 459.273 83.0923C458.83 83.0923 458.436 82.9954 458.091 82.8015C457.747 82.6045 457.476 82.3091 457.279 81.9151C457.082 81.5181 456.983 81.018 456.983 80.4148V75.9091H458.073V80.3409C458.073 80.858 458.218 81.2704 458.507 81.5781C458.799 81.8859 459.172 82.0398 459.624 82.0398C459.895 82.0398 460.17 81.9705 460.45 81.832C460.734 81.6935 460.971 81.4812 461.161 81.195C461.355 80.9087 461.452 80.544 461.452 80.1009ZM464.537 83V75.9091H465.59V76.9801H465.664C465.793 76.6293 466.027 76.3446 466.365 76.1261C466.704 75.9076 467.085 75.7983 467.51 75.7983C467.59 75.7983 467.69 75.7998 467.81 75.8029C467.93 75.806 468.021 75.8106 468.083 75.8168V76.9247C468.046 76.9155 467.961 76.9016 467.829 76.8832C467.699 76.8616 467.563 76.8509 467.418 76.8509C467.073 76.8509 466.765 76.9232 466.495 77.0678C466.227 77.2094 466.014 77.4064 465.858 77.6587C465.704 77.908 465.627 78.1927 465.627 78.5128V83H464.537ZM471.461 83.1662C471.011 83.1662 470.604 83.0816 470.237 82.9123C469.871 82.7399 469.58 82.4922 469.365 82.169C469.149 81.8428 469.042 81.4489 469.042 80.9872C469.042 80.581 469.122 80.2517 469.282 79.9993C469.442 79.7438 469.656 79.5438 469.923 79.3991C470.191 79.2545 470.487 79.1468 470.81 79.076C471.136 79.0021 471.464 78.9437 471.793 78.9006C472.224 78.8452 472.573 78.8036 472.841 78.7759C473.112 78.7451 473.309 78.6944 473.432 78.6236C473.558 78.5528 473.621 78.4297 473.621 78.2543V78.2173C473.621 77.7618 473.497 77.4079 473.247 77.1555C473.001 76.9032 472.627 76.777 472.126 76.777C471.605 76.777 471.198 76.8909 470.902 77.1186C470.607 77.3464 470.399 77.5895 470.279 77.848L469.245 77.4787C469.43 77.0478 469.676 76.7124 469.983 76.4723C470.294 76.2292 470.633 76.0599 470.999 75.9645C471.368 75.866 471.732 75.8168 472.089 75.8168C472.316 75.8168 472.578 75.8445 472.873 75.8999C473.172 75.9522 473.46 76.0614 473.737 76.2276C474.017 76.3938 474.249 76.6446 474.434 76.9801C474.618 77.3156 474.711 77.7649 474.711 78.3281V83H473.621V82.0398H473.566C473.492 82.1937 473.369 82.3583 473.197 82.5337C473.024 82.7092 472.795 82.8584 472.509 82.9815C472.222 83.1046 471.873 83.1662 471.461 83.1662ZM471.627 82.1875C472.058 82.1875 472.421 82.1029 472.716 81.9336C473.015 81.7643 473.24 81.5458 473.39 81.2781C473.544 81.0103 473.621 80.7287 473.621 80.4332V79.4361C473.575 79.4915 473.474 79.5423 473.317 79.5884C473.163 79.6315 472.984 79.67 472.781 79.7038C472.581 79.7346 472.386 79.7623 472.195 79.7869C472.007 79.8085 471.855 79.8269 471.738 79.8423C471.455 79.8793 471.19 79.9393 470.944 80.0224C470.701 80.1024 470.504 80.224 470.353 80.3871C470.205 80.5471 470.131 80.7656 470.131 81.0426C470.131 81.4212 470.271 81.7074 470.551 81.9013C470.834 82.0921 471.193 82.1875 471.627 82.1875ZM479.783 75.9091V76.8324H476.108V75.9091H479.783ZM477.179 74.2102H478.269V80.9688C478.269 81.2765 478.314 81.5073 478.403 81.6612C478.495 81.812 478.612 81.9136 478.754 81.9659C478.898 82.0152 479.051 82.0398 479.211 82.0398C479.331 82.0398 479.429 82.0336 479.506 82.0213C479.583 82.0059 479.645 81.9936 479.691 81.9844L479.912 82.9631C479.839 82.9908 479.735 83.0185 479.603 83.0462C479.471 83.0769 479.303 83.0923 479.1 83.0923C478.792 83.0923 478.491 83.0262 478.195 82.8938C477.903 82.7615 477.66 82.5599 477.466 82.2891C477.275 82.0182 477.179 81.6766 477.179 81.2642V74.2102ZM482.664 78.7344V83H481.574V73.5455H482.664V77.017H482.756C482.922 76.6508 483.172 76.36 483.504 76.1445C483.839 75.926 484.286 75.8168 484.843 75.8168C485.326 75.8168 485.749 75.9137 486.112 76.1076C486.475 76.2984 486.757 76.5923 486.957 76.9893C487.16 77.3833 487.262 77.8849 487.262 78.4943V83H486.172V78.5682C486.172 78.005 486.026 77.5695 485.734 77.2617C485.444 76.9509 485.043 76.7955 484.529 76.7955C484.172 76.7955 483.852 76.8709 483.569 77.0217C483.289 77.1725 483.067 77.3925 482.904 77.6818C482.744 77.9711 482.664 78.322 482.664 78.7344ZM491.342 83.1662C490.892 83.1662 490.484 83.0816 490.118 82.9123C489.752 82.7399 489.461 82.4922 489.246 82.169C489.03 81.8428 488.923 81.4489 488.923 80.9872C488.923 80.581 489.003 80.2517 489.163 79.9993C489.323 79.7438 489.537 79.5438 489.804 79.3991C490.072 79.2545 490.368 79.1468 490.691 79.076C491.017 79.0021 491.345 78.9437 491.674 78.9006C492.105 78.8452 492.454 78.8036 492.722 78.7759C492.993 78.7451 493.19 78.6944 493.313 78.6236C493.439 78.5528 493.502 78.4297 493.502 78.2543V78.2173C493.502 77.7618 493.377 77.4079 493.128 77.1555C492.882 76.9032 492.508 76.777 492.006 76.777C491.486 76.777 491.078 76.8909 490.783 77.1186C490.488 77.3464 490.28 77.5895 490.16 77.848L489.126 77.4787C489.31 77.0478 489.557 76.7124 489.864 76.4723C490.175 76.2292 490.514 76.0599 490.88 75.9645C491.249 75.866 491.612 75.8168 491.969 75.8168C492.197 75.8168 492.459 75.8445 492.754 75.8999C493.053 75.9522 493.341 76.0614 493.618 76.2276C493.898 76.3938 494.13 76.6446 494.315 76.9801C494.499 77.3156 494.592 77.7649 494.592 78.3281V83H493.502V82.0398H493.447C493.373 82.1937 493.25 82.3583 493.077 82.5337C492.905 82.7092 492.676 82.8584 492.39 82.9815C492.103 83.1046 491.754 83.1662 491.342 83.1662ZM491.508 82.1875C491.939 82.1875 492.302 82.1029 492.597 81.9336C492.896 81.7643 493.121 81.5458 493.271 81.2781C493.425 81.0103 493.502 80.7287 493.502 80.4332V79.4361C493.456 79.4915 493.354 79.5423 493.197 79.5884C493.044 79.6315 492.865 79.67 492.662 79.7038C492.462 79.7346 492.266 79.7623 492.076 79.7869C491.888 79.8085 491.736 79.8269 491.619 79.8423C491.335 79.8793 491.071 79.9393 490.825 80.0224C490.581 80.1024 490.384 80.224 490.234 80.3871C490.086 80.5471 490.012 80.7656 490.012 81.0426C490.012 81.4212 490.152 81.7074 490.432 81.9013C490.715 82.0921 491.074 82.1875 491.508 82.1875ZM497.67 73.5455V83H496.58V73.5455H497.67ZM499.665 83V75.9091H500.755V83H499.665ZM500.219 74.7273C500.007 74.7273 499.824 74.6549 499.67 74.5103C499.519 74.3656 499.444 74.1918 499.444 73.9886C499.444 73.7855 499.519 73.6116 499.67 73.467C499.824 73.3223 500.007 73.25 500.219 73.25C500.431 73.25 500.613 73.3223 500.764 73.467C500.918 73.6116 500.995 73.7855 500.995 73.9886C500.995 74.1918 500.918 74.3656 500.764 74.5103C500.613 74.6549 500.431 74.7273 500.219 74.7273ZM505.834 75.9091V76.8324H502.159V75.9091H505.834ZM503.23 74.2102H504.32V80.9688C504.32 81.2765 504.364 81.5073 504.454 81.6612C504.546 81.812 504.663 81.9136 504.804 81.9659C504.949 82.0152 505.101 82.0398 505.261 82.0398C505.381 82.0398 505.48 82.0336 505.557 82.0213C505.634 82.0059 505.695 81.9936 505.742 81.9844L505.963 82.9631C505.889 82.9908 505.786 83.0185 505.654 83.0462C505.522 83.0769 505.354 83.0923 505.151 83.0923C504.843 83.0923 504.541 83.0262 504.246 82.8938C503.953 82.7615 503.71 82.5599 503.516 82.2891C503.326 82.0182 503.23 81.6766 503.23 81.2642V74.2102ZM512.369 77.4972L511.39 77.7741C511.328 77.611 511.237 77.4525 511.117 77.2987C511.001 77.1417 510.84 77.0124 510.637 76.9109C510.434 76.8093 510.174 76.7585 509.857 76.7585C509.423 76.7585 509.062 76.8585 508.772 77.0586C508.486 77.2556 508.343 77.5064 508.343 77.8111C508.343 78.0819 508.441 78.2958 508.638 78.4528C508.835 78.6097 509.143 78.7405 509.562 78.8452L510.614 79.1037C511.248 79.2576 511.721 79.493 512.032 79.81C512.342 80.1239 512.498 80.5286 512.498 81.0241C512.498 81.4304 512.381 81.7936 512.147 82.1136C511.916 82.4337 511.593 82.6861 511.177 82.8707C510.762 83.0554 510.279 83.1477 509.728 83.1477C509.005 83.1477 508.406 82.9908 507.932 82.6768C507.458 82.3629 507.158 81.9044 507.032 81.3011L508.066 81.0426C508.164 81.4242 508.351 81.7105 508.625 81.9013C508.902 82.0921 509.263 82.1875 509.709 82.1875C510.217 82.1875 510.62 82.0798 510.919 81.8643C511.221 81.6458 511.371 81.3842 511.371 81.0795C511.371 80.8333 511.285 80.6271 511.113 80.4609C510.94 80.2917 510.676 80.1655 510.319 80.0824L509.137 79.8054C508.488 79.6515 508.011 79.413 507.706 79.0898C507.404 78.7636 507.253 78.3558 507.253 77.8665C507.253 77.4664 507.366 77.1125 507.59 76.8047C507.818 76.4969 508.128 76.2553 508.518 76.0799C508.912 75.9045 509.359 75.8168 509.857 75.8168C510.559 75.8168 511.11 75.9706 511.51 76.2784C511.913 76.5862 512.199 76.9924 512.369 77.4972ZM517.111 83.1477C516.428 83.1477 515.838 82.9969 515.343 82.6953C514.85 82.3906 514.47 81.9659 514.202 81.4212C513.938 80.8733 513.805 80.2363 513.805 79.5099C513.805 78.7836 513.938 78.1435 514.202 77.5895C514.47 77.0324 514.843 76.5985 515.32 76.2876C515.8 75.9737 516.36 75.8168 517 75.8168C517.369 75.8168 517.734 75.8783 518.094 76.0014C518.454 76.1245 518.782 76.3246 519.077 76.6016C519.373 76.8755 519.608 77.2386 519.784 77.6911C519.959 78.1435 520.047 78.7005 520.047 79.3622V79.8239H514.581V78.8821H518.939C518.939 78.482 518.859 78.125 518.699 77.8111C518.542 77.4972 518.317 77.2494 518.025 77.0678C517.736 76.8862 517.394 76.7955 517 76.7955C516.566 76.7955 516.191 76.9032 515.874 77.1186C515.56 77.331 515.318 77.608 515.149 77.9496C514.98 78.2912 514.895 78.6574 514.895 79.0483V79.6761C514.895 80.2116 514.987 80.6656 515.172 81.038C515.36 81.4073 515.62 81.6889 515.952 81.8828C516.284 82.0736 516.671 82.169 517.111 82.169C517.397 82.169 517.656 82.129 517.886 82.049C518.12 81.9659 518.322 81.8428 518.491 81.6797C518.66 81.5135 518.791 81.3073 518.884 81.0611L519.936 81.3565C519.825 81.7135 519.639 82.0275 519.377 82.2983C519.116 82.5661 518.793 82.7753 518.408 82.9261C518.023 83.0739 517.591 83.1477 517.111 83.1477ZM527.287 75.9091L524.665 83H523.557L520.934 75.9091H522.116L524.074 81.5597H524.147L526.105 75.9091H527.287ZM531.444 83.1477C530.761 83.1477 530.171 82.9969 529.676 82.6953C529.183 82.3906 528.803 81.9659 528.535 81.4212C528.271 80.8733 528.138 80.2363 528.138 79.5099C528.138 78.7836 528.271 78.1435 528.535 77.5895C528.803 77.0324 529.176 76.5985 529.653 76.2876C530.133 75.9737 530.693 75.8168 531.333 75.8168C531.702 75.8168 532.067 75.8783 532.427 76.0014C532.787 76.1245 533.115 76.3246 533.41 76.6016C533.706 76.8755 533.941 77.2386 534.117 77.6911C534.292 78.1435 534.38 78.7005 534.38 79.3622V79.8239H528.914V78.8821H533.272C533.272 78.482 533.192 78.125 533.032 77.8111C532.875 77.4972 532.65 77.2494 532.358 77.0678C532.069 76.8862 531.727 76.7955 531.333 76.7955C530.899 76.7955 530.524 76.9032 530.207 77.1186C529.893 77.331 529.651 77.608 529.482 77.9496C529.313 78.2912 529.228 78.6574 529.228 79.0483V79.6761C529.228 80.2116 529.32 80.6656 529.505 81.038C529.693 81.4073 529.953 81.6889 530.285 81.8828C530.617 82.0736 531.004 82.169 531.444 82.169C531.73 82.169 531.989 82.129 532.219 82.049C532.453 81.9659 532.655 81.8428 532.824 81.6797C532.993 81.5135 533.124 81.3073 533.217 81.0611L534.269 81.3565C534.158 81.7135 533.972 82.0275 533.71 82.2983C533.449 82.5661 533.126 82.7753 532.741 82.9261C532.356 83.0739 531.924 83.1477 531.444 83.1477ZM536.037 83V75.9091H537.09V76.9801H537.164C537.293 76.6293 537.527 76.3446 537.865 76.1261C538.204 75.9076 538.585 75.7983 539.01 75.7983C539.09 75.7983 539.19 75.7998 539.31 75.8029C539.43 75.806 539.521 75.8106 539.583 75.8168V76.9247C539.546 76.9155 539.461 76.9016 539.329 76.8832C539.199 76.8616 539.063 76.8509 538.918 76.8509C538.573 76.8509 538.265 76.9232 537.995 77.0678C537.727 77.2094 537.514 77.4064 537.358 77.6587C537.204 77.908 537.127 78.1927 537.127 78.5128V83H536.037ZM540.856 83.0739C540.628 83.0739 540.432 82.9923 540.269 82.8292C540.106 82.6661 540.025 82.4706 540.025 82.2429C540.025 82.0152 540.106 81.8197 540.269 81.6566C540.432 81.4935 540.628 81.4119 540.856 81.4119C541.083 81.4119 541.279 81.4935 541.442 81.6566C541.605 81.8197 541.687 82.0152 541.687 82.2429C541.687 82.3937 541.648 82.5322 541.571 82.6584C541.497 82.7846 541.397 82.8861 541.271 82.9631C541.148 83.0369 541.01 83.0739 540.856 83.0739ZM543.642 75.9091H544.731V83.517C544.731 83.9541 544.656 84.3326 544.505 84.6527C544.357 84.9728 544.133 85.2205 543.831 85.396C543.532 85.5714 543.155 85.6591 542.7 85.6591C542.663 85.6591 542.626 85.6591 542.589 85.6591C542.552 85.6591 542.515 85.6591 542.478 85.6591V84.6435C542.515 84.6435 542.549 84.6435 542.58 84.6435C542.611 84.6435 542.645 84.6435 542.681 84.6435C543.014 84.6435 543.257 84.545 543.411 84.348C543.565 84.1541 543.642 83.8771 543.642 83.517V75.9091ZM544.177 74.7273C543.965 74.7273 543.782 74.6549 543.628 74.5103C543.477 74.3656 543.402 74.1918 543.402 73.9886C543.402 73.7855 543.477 73.6116 543.628 73.467C543.782 73.3223 543.965 73.25 544.177 73.25C544.39 73.25 544.571 73.3223 544.722 73.467C544.876 73.6116 544.953 73.7855 544.953 73.9886C544.953 74.1918 544.876 74.3656 544.722 74.5103C544.571 74.6549 544.39 74.7273 544.177 74.7273ZM551.749 77.4972L550.771 77.7741C550.709 77.611 550.618 77.4525 550.498 77.2987C550.381 77.1417 550.221 77.0124 550.018 76.9109C549.815 76.8093 549.555 76.7585 549.238 76.7585C548.804 76.7585 548.442 76.8585 548.153 77.0586C547.867 77.2556 547.724 77.5064 547.724 77.8111C547.724 78.0819 547.822 78.2958 548.019 78.4528C548.216 78.6097 548.524 78.7405 548.943 78.8452L549.995 79.1037C550.629 79.2576 551.102 79.493 551.412 79.81C551.723 80.1239 551.879 80.5286 551.879 81.0241C551.879 81.4304 551.762 81.7936 551.528 82.1136C551.297 82.4337 550.974 82.6861 550.558 82.8707C550.143 83.0554 549.66 83.1477 549.109 83.1477C548.386 83.1477 547.787 82.9908 547.313 82.6768C546.839 82.3629 546.539 81.9044 546.413 81.3011L547.447 81.0426C547.545 81.4242 547.732 81.7105 548.005 81.9013C548.282 82.0921 548.644 82.1875 549.09 82.1875C549.598 82.1875 550.001 82.0798 550.3 81.8643C550.601 81.6458 550.752 81.3842 550.752 81.0795C550.752 80.8333 550.666 80.6271 550.494 80.4609C550.321 80.2917 550.057 80.1655 549.7 80.0824L548.518 79.8054C547.868 79.6515 547.391 79.413 547.087 79.0898C546.785 78.7636 546.634 78.3558 546.634 77.8665C546.634 77.4664 546.747 77.1125 546.971 76.8047C547.199 76.4969 547.508 76.2553 547.899 76.0799C548.293 75.9045 548.739 75.8168 549.238 75.8168C549.94 75.8168 550.491 75.9706 550.891 76.2784C551.294 76.5862 551.58 76.9924 551.749 77.4972ZM554.313 83.0739C554.085 83.0739 553.89 82.9923 553.726 82.8292C553.563 82.6661 553.482 82.4706 553.482 82.2429C553.482 82.0152 553.563 81.8197 553.726 81.6566C553.89 81.4935 554.085 81.4119 554.313 81.4119C554.54 81.4119 554.736 81.4935 554.899 81.6566C555.062 81.8197 555.144 82.0152 555.144 82.2429C555.144 82.3937 555.105 82.5322 555.028 82.6584C554.954 82.7846 554.854 82.8861 554.728 82.9631C554.605 83.0369 554.467 83.0739 554.313 83.0739ZM559.979 83.1477C559.339 83.1477 558.778 82.9954 558.294 82.6907C557.814 82.386 557.439 81.9598 557.168 81.4119C556.9 80.8641 556.766 80.224 556.766 79.4915C556.766 78.7528 556.9 78.1081 557.168 77.5572C557.439 77.0063 557.814 76.5785 558.294 76.2738C558.778 75.9691 559.339 75.8168 559.979 75.8168C560.62 75.8168 561.18 75.9691 561.66 76.2738C562.143 76.5785 562.518 77.0063 562.786 77.5572C563.057 78.1081 563.192 78.7528 563.192 79.4915C563.192 80.224 563.057 80.8641 562.786 81.4119C562.518 81.9598 562.143 82.386 561.66 82.6907C561.18 82.9954 560.62 83.1477 559.979 83.1477ZM559.979 82.169C560.466 82.169 560.866 82.0444 561.18 81.7951C561.494 81.5458 561.726 81.218 561.877 80.8118C562.028 80.4055 562.103 79.9654 562.103 79.4915C562.103 79.0175 562.028 78.5759 561.877 78.1665C561.726 77.7572 561.494 77.4264 561.18 77.174C560.866 76.9216 560.466 76.7955 559.979 76.7955C559.493 76.7955 559.093 76.9216 558.779 77.174C558.465 77.4264 558.233 77.7572 558.082 78.1665C557.931 78.5759 557.856 79.0175 557.856 79.4915C557.856 79.9654 557.931 80.4055 558.082 80.8118C558.233 81.218 558.465 81.5458 558.779 81.7951C559.093 82.0444 559.493 82.169 559.979 82.169ZM564.856 83V75.9091H565.908V76.9801H565.982C566.111 76.6293 566.345 76.3446 566.684 76.1261C567.022 75.9076 567.404 75.7983 567.829 75.7983C567.909 75.7983 568.009 75.7998 568.129 75.8029C568.249 75.806 568.339 75.8106 568.401 75.8168V76.9247C568.364 76.9155 568.279 76.9016 568.147 76.8832C568.018 76.8616 567.881 76.8509 567.736 76.8509C567.392 76.8509 567.084 76.9232 566.813 77.0678C566.545 77.2094 566.333 77.4064 566.176 77.6587C566.022 77.908 565.945 78.1927 565.945 78.5128V83H564.856ZM572.339 85.8068C571.813 85.8068 571.36 85.7391 570.982 85.6037C570.603 85.4714 570.288 85.2959 570.035 85.0774C569.786 84.862 569.587 84.6312 569.44 84.3849L570.308 83.7756C570.406 83.9048 570.531 84.0526 570.682 84.2188C570.832 84.388 571.039 84.5342 571.3 84.6573C571.565 84.7835 571.911 84.8466 572.339 84.8466C572.911 84.8466 573.384 84.7081 573.756 84.4311C574.129 84.1541 574.315 83.7202 574.315 83.1293V81.6889H574.222C574.142 81.8182 574.028 81.9782 573.881 82.169C573.736 82.3568 573.527 82.5245 573.253 82.6722C572.982 82.8169 572.616 82.8892 572.154 82.8892C571.582 82.8892 571.068 82.7538 570.612 82.483C570.16 82.2121 569.801 81.8182 569.537 81.3011C569.275 80.7841 569.144 80.1562 569.144 79.4176C569.144 78.6913 569.272 78.0588 569.527 77.5202C569.783 76.9786 570.138 76.56 570.594 76.2646C571.049 75.966 571.576 75.8168 572.173 75.8168C572.634 75.8168 573.001 75.8937 573.271 76.0476C573.545 76.1984 573.755 76.3707 573.899 76.5646C574.047 76.7554 574.161 76.9124 574.241 77.0355H574.352V75.9091H575.404V83.2031C575.404 83.8125 575.266 84.308 574.989 84.6896C574.715 85.0743 574.345 85.3559 573.881 85.5344C573.419 85.716 572.905 85.8068 572.339 85.8068ZM572.302 81.9105C572.739 81.9105 573.108 81.8105 573.41 81.6104C573.711 81.4104 573.941 81.1226 574.098 80.7472C574.255 80.3717 574.333 79.9223 574.333 79.3991C574.333 78.8883 574.256 78.4374 574.102 78.0465C573.948 77.6557 573.721 77.3494 573.419 77.1278C573.118 76.9062 572.745 76.7955 572.302 76.7955C571.84 76.7955 571.456 76.9124 571.148 77.1463C570.843 77.3802 570.614 77.6941 570.46 78.0881C570.309 78.482 570.234 78.919 570.234 79.3991C570.234 79.8916 570.311 80.3271 570.465 80.7056C570.622 81.0811 570.852 81.3765 571.157 81.592C571.465 81.8043 571.846 81.9105 572.302 81.9105Z" fill="white"/>
<path fill-rule="evenodd" clip-rule="evenodd" d="M363 83C366.314 83 369 80.3137 369 77C369 73.6863 366.314 71 363 71C359.686 71 357 73.6863 357 77C357 80.3137 359.686 83 363 83ZM363 84C366.866 84 370 80.866 370 77C370 73.134 366.866 70 363 70C359.134 70 356 73.134 356 77C356 80.866 359.134 84 363 84Z" fill="white" fill-opacity="0.4"/>
<path d="M363.946 81H362.054L362.054 76H363.946V81ZM364 75H362V73H364V75Z" fill="white" fill-opacity="0.4"/>
<rect x="377.5" y="76.5" width="11" height="7" rx="0.5" fill="white" stroke="white"/>
<path d="M380 76V74C380 72.3431 381.343 71 383 71V71C384.657 71 386 72.3431 386 74V76" stroke="white" stroke-width="2"/>
<circle cx="1199" cy="77" r="2" fill="#666666"/>
<circle cx="1205" cy="77" r="2" fill="#666666"/>
<circle cx="1211" cy="77" r="2" fill="#666666"/>
<path d="M1226 71H1240V76C1240 79.866 1236.87 83 1233 83C1229.13 83 1226 79.866 1226 76V71Z" stroke="#666666" stroke-width="2"/>
<path d="M1230 75L1233 78L1236 75" stroke="#666666" stroke-width="2" stroke-linecap="round" stroke-linejoin="round"/>
<path d="M1261 69.2596L1262.81 72.926C1263.1 73.5163 1263.66 73.9255 1264.32 74.0201L1268.36 74.6081L1265.43 77.462C1264.96 77.9215 1264.75 78.5835 1264.86 79.2323L1265.55 83.2622L1261.93 81.3595C1261.35 81.0532 1260.65 81.0532 1260.07 81.3595L1256.45 83.2622L1257.14 79.2323C1257.25 78.5835 1257.04 77.9215 1256.57 77.462L1253.64 74.6081L1257.68 74.0201C1258.34 73.9255 1258.9 73.5163 1259.19 72.926L1261 69.2596Z" stroke="#666666" stroke-width="2"/>
<line x1="1735" y1="72" x2="1747" y2="72" stroke="#525254" stroke-width="2"/>
<line x1="1735" y1="77" x2="1747" y2="77" stroke="#525254" stroke-width="2"/>
<line x1="1735" y1="82" x2="1747" y2="82" stroke="#525254" stroke-width="2"/>
<line opacity="0.2" x1="1719.5" y1="94" x2="1719.5" y2="60" stroke="#525254"/>
<circle cx="180" cy="77" r="16.5" stroke="white" stroke-opacity="0.4"/>
<path d="M187 77H173M173 77L178.793 71M173 77L178.793 83" stroke="white" stroke-opacity="0.4" stroke-width="2" stroke-linecap="round" stroke-linejoin="round"/>
<path d="M206 77H220M220 77L214.207 71M220 77L214.207 83" stroke="white" stroke-opacity="0.4" stroke-width="2" stroke-linecap="round" stroke-linejoin="round"/>
<path d="M249.199 81.7857C248.117 82.8462 246.635 83.5 245 83.5C241.686 83.5 239 80.8137 239 77.5C239 74.1863 241.686 71.5 245 71.5C247.973 71.5 250.441 73.6623 250.917 76.5M252 71V76.5H250.917M246 76.5H250.917" stroke="white" stroke-opacity="0.4" stroke-width="2" stroke-linecap="round" stroke-linejoin="round"/>
<path d="M282 77H284L282 75M282 77V84.5H279M282 77V75M272 77V84.5H275M272 77H270L272 75M272 77V75M282 75L277 70L272 75M275 84.5V78H277M275 84.5H277M279 84.5V78H277M279 84.5H277M277 84.5V78" stroke="white" stroke-opacity="0.4" stroke-width="2" stroke-linecap="round" stroke-linejoin="round"/>
<g clip-path="url(#clip1_645_3355)">
<rect x="1759.5" y="98.5" width="867" height="15" transform="rotate(90 1759.5 98.5)" fill="#F0F0F0" stroke="white"/>
<rect x="1745" y="115" width="14" height="644" fill="#D9DEE7"/>
<rect x="1745" y="98" width="14" height="17" fill="#F0F0F0"/>
<path d="M1749 108L1752 105L1755 108" stroke="#606060" stroke-width="2" stroke-linecap="round" stroke-linejoin="round"/>
</g>
<g clip-path="url(#clip2_645_3355)">
<path d="M1760 57V24H160V57" stroke="white" stroke-opacity="0.4" stroke-width="2"/>
<path d="M403.62 36.5563C403.322 36.2495 402.838 36.2495 402.54 36.5563C402.242 36.8631 402.242 37.3606 402.54 37.6674L405.92 41.1437L402.818 44.3341C402.52 44.6409 402.52 45.1384 402.818 45.4452C403.116 45.752 403.6 45.752 403.898 45.4452L407 42.2548L410.102 45.4452C410.4 45.752 410.884 45.752 411.182 45.4452C411.48 45.1383 411.48 44.6409 411.182 44.3341L408.08 41.1437L411.46 37.6674C411.758 37.3606 411.758 36.8631 411.46 36.5563C411.162 36.2495 410.678 36.2495 410.38 36.5563L407 40.0326L403.62 36.5563Z" fill="white" fill-opacity="0.4"/>
<path d="M210.415 46H209.307L212.511 37.2727H213.602L216.807 46H215.699L213.091 38.6534H213.023L210.415 46ZM210.824 42.5909H215.29V43.5284H210.824V42.5909ZM218.03 48.4545V39.4545H219.001V40.4943H219.121C219.195 40.3807 219.297 40.2358 219.428 40.0597C219.561 39.8807 219.751 39.7216 219.999 39.5824C220.249 39.4403 220.587 39.3693 221.013 39.3693C221.564 39.3693 222.05 39.5071 222.47 39.7827C222.891 40.0582 223.219 40.4489 223.455 40.9545C223.69 41.4602 223.808 42.0568 223.808 42.7443C223.808 43.4375 223.69 44.0384 223.455 44.5469C223.219 45.0526 222.892 45.4446 222.474 45.723C222.057 45.9986 221.575 46.1364 221.03 46.1364C220.609 46.1364 220.273 46.0668 220.02 45.9276C219.767 45.7855 219.572 45.625 219.436 45.446C219.3 45.2642 219.195 45.1136 219.121 44.9943H219.036V48.4545H218.03ZM219.018 42.7273C219.018 43.2216 219.091 43.6577 219.236 44.0355C219.381 44.4105 219.592 44.7045 219.871 44.9176C220.149 45.1278 220.49 45.233 220.893 45.233C221.314 45.233 221.665 45.1222 221.946 44.9006C222.23 44.6761 222.443 44.375 222.585 43.9972C222.73 43.6165 222.803 43.1932 222.803 42.7273C222.803 42.267 222.732 41.8523 222.589 41.483C222.45 41.1108 222.239 40.8168 221.955 40.6009C221.673 40.3821 221.32 40.2727 220.893 40.2727C220.484 40.2727 220.141 40.3764 219.862 40.5838C219.584 40.7884 219.374 41.0753 219.232 41.4446C219.089 41.8111 219.018 42.2386 219.018 42.7273ZM225.342 48.4545V39.4545H226.314V40.4943H226.433C226.507 40.3807 226.609 40.2358 226.74 40.0597C226.874 39.8807 227.064 39.7216 227.311 39.5824C227.561 39.4403 227.899 39.3693 228.325 39.3693C228.876 39.3693 229.362 39.5071 229.783 39.7827C230.203 40.0582 230.531 40.4489 230.767 40.9545C231.003 41.4602 231.121 42.0568 231.121 42.7443C231.121 43.4375 231.003 44.0384 230.767 44.5469C230.531 45.0526 230.205 45.4446 229.787 45.723C229.369 45.9986 228.888 46.1364 228.342 46.1364C227.922 46.1364 227.585 46.0668 227.332 45.9276C227.08 45.7855 226.885 45.625 226.749 45.446C226.612 45.2642 226.507 45.1136 226.433 44.9943H226.348V48.4545H225.342ZM226.331 42.7273C226.331 43.2216 226.403 43.6577 226.548 44.0355C226.693 44.4105 226.905 44.7045 227.183 44.9176C227.462 45.1278 227.803 45.233 228.206 45.233C228.626 45.233 228.977 45.1222 229.259 44.9006C229.543 44.6761 229.756 44.375 229.898 43.9972C230.043 43.6165 230.115 43.1932 230.115 42.7273C230.115 42.267 230.044 41.8523 229.902 41.483C229.763 41.1108 229.551 40.8168 229.267 40.6009C228.986 40.3821 228.632 40.2727 228.206 40.2727C227.797 40.2727 227.453 40.3764 227.175 40.5838C226.896 40.7884 226.686 41.0753 226.544 41.4446C226.402 41.8111 226.331 42.2386 226.331 42.7273ZM233.661 37.2727V46H232.655V37.2727H233.661ZM235.502 46V39.4545H236.508V46H235.502ZM236.014 38.3636C235.818 38.3636 235.649 38.2969 235.507 38.1634C235.368 38.0298 235.298 37.8693 235.298 37.6818C235.298 37.4943 235.368 37.3338 235.507 37.2003C235.649 37.0668 235.818 37 236.014 37C236.21 37 236.377 37.0668 236.517 37.2003C236.659 37.3338 236.73 37.4943 236.73 37.6818C236.73 37.8693 236.659 38.0298 236.517 38.1634C236.377 38.2969 236.21 38.3636 236.014 38.3636ZM241.009 46.1364C240.396 46.1364 239.867 45.9915 239.424 45.7017C238.981 45.4119 238.64 45.0128 238.401 44.5043C238.163 43.9957 238.043 43.4148 238.043 42.7614C238.043 42.0966 238.165 41.5099 238.41 41.0014C238.657 40.4901 239.001 40.0909 239.441 39.804C239.884 39.5142 240.401 39.3693 240.992 39.3693C241.452 39.3693 241.867 39.4545 242.237 39.625C242.606 39.7955 242.908 40.0341 243.144 40.3409C243.38 40.6477 243.526 41.0057 243.583 41.4148H242.577C242.501 41.1165 242.33 40.8523 242.066 40.6222C241.805 40.3892 241.452 40.2727 241.009 40.2727C240.617 40.2727 240.273 40.375 239.978 40.5795C239.685 40.7812 239.457 41.0668 239.292 41.4361C239.13 41.8026 239.049 42.233 239.049 42.7273C239.049 43.233 239.129 43.6733 239.288 44.0483C239.45 44.4233 239.677 44.7145 239.969 44.9219C240.265 45.1293 240.612 45.233 241.009 45.233C241.271 45.233 241.508 45.1875 241.721 45.0966C241.934 45.0057 242.114 44.875 242.262 44.7045C242.41 44.5341 242.515 44.3295 242.577 44.0909H243.583C243.526 44.4773 243.386 44.8253 243.161 45.1349C242.94 45.4418 242.646 45.6861 242.279 45.8679C241.915 46.0469 241.492 46.1364 241.009 46.1364ZM246.979 46.1534C246.565 46.1534 246.188 46.0753 245.85 45.919C245.512 45.7599 245.244 45.5312 245.045 45.233C244.846 44.9318 244.746 44.5682 244.746 44.142C244.746 43.767 244.82 43.4631 244.968 43.2301C245.116 42.9943 245.313 42.8097 245.56 42.6761C245.808 42.5426 246.08 42.4432 246.379 42.3778C246.68 42.3097 246.982 42.2557 247.286 42.2159C247.684 42.1648 248.006 42.1264 248.254 42.1009C248.504 42.0724 248.685 42.0256 248.799 41.9602C248.915 41.8949 248.974 41.7812 248.974 41.6193V41.5852C248.974 41.1648 248.859 40.8381 248.629 40.6051C248.401 40.3722 248.056 40.2557 247.593 40.2557C247.113 40.2557 246.737 40.3608 246.464 40.571C246.191 40.7812 245.999 41.0057 245.888 41.2443L244.934 40.9034C245.104 40.5057 245.332 40.196 245.616 39.9744C245.903 39.75 246.215 39.5937 246.553 39.5057C246.894 39.4148 247.229 39.3693 247.559 39.3693C247.769 39.3693 248.011 39.3949 248.283 39.446C248.559 39.4943 248.825 39.5952 249.08 39.7486C249.339 39.902 249.553 40.1335 249.724 40.4432C249.894 40.7528 249.979 41.1676 249.979 41.6875V46H248.974V45.1136H248.923C248.854 45.2557 248.741 45.4077 248.582 45.5696C248.423 45.7315 248.211 45.8693 247.947 45.983C247.683 46.0966 247.36 46.1534 246.979 46.1534ZM247.133 45.25C247.531 45.25 247.866 45.1719 248.138 45.0156C248.414 44.8594 248.621 44.6577 248.761 44.4105C248.903 44.1634 248.974 43.9034 248.974 43.6307V42.7102C248.931 42.7614 248.837 42.8082 248.692 42.8509C248.55 42.8906 248.386 42.9261 248.198 42.9574C248.013 42.9858 247.833 43.0114 247.657 43.0341C247.484 43.054 247.343 43.071 247.235 43.0852C246.974 43.1193 246.729 43.1747 246.502 43.2514C246.278 43.3253 246.096 43.4375 245.957 43.5881C245.82 43.7358 245.752 43.9375 245.752 44.1932C245.752 44.5426 245.881 44.8068 246.14 44.9858C246.401 45.1619 246.732 45.25 247.133 45.25ZM254.662 39.4545V40.3068H251.27V39.4545H254.662ZM252.258 37.8864H253.264V44.125C253.264 44.4091 253.305 44.6222 253.387 44.7642C253.473 44.9034 253.581 44.9972 253.711 45.0455C253.845 45.0909 253.985 45.1136 254.133 45.1136C254.244 45.1136 254.335 45.108 254.406 45.0966C254.477 45.0824 254.534 45.071 254.576 45.0625L254.781 45.9659C254.713 45.9915 254.618 46.017 254.495 46.0426C254.373 46.071 254.218 46.0852 254.031 46.0852C253.747 46.0852 253.468 46.0241 253.196 45.902C252.926 45.7798 252.701 45.5938 252.522 45.3438C252.346 45.0938 252.258 44.7784 252.258 44.3977V37.8864ZM256.174 46V39.4545H257.18V46H256.174ZM256.686 38.3636C256.49 38.3636 256.321 38.2969 256.179 38.1634C256.039 38.0298 255.97 37.8693 255.97 37.6818C255.97 37.4943 256.039 37.3338 256.179 37.2003C256.321 37.0668 256.49 37 256.686 37C256.882 37 257.049 37.0668 257.189 37.2003C257.331 37.3338 257.402 37.4943 257.402 37.6818C257.402 37.8693 257.331 38.0298 257.189 38.1634C257.049 38.2969 256.882 38.3636 256.686 38.3636ZM261.681 46.1364C261.09 46.1364 260.572 45.9957 260.126 45.7145C259.683 45.4332 259.336 45.0398 259.086 44.5341C258.839 44.0284 258.715 43.4375 258.715 42.7614C258.715 42.0795 258.839 41.4844 259.086 40.9759C259.336 40.4673 259.683 40.0724 260.126 39.7912C260.572 39.5099 261.09 39.3693 261.681 39.3693C262.272 39.3693 262.789 39.5099 263.232 39.7912C263.678 40.0724 264.025 40.4673 264.272 40.9759C264.522 41.4844 264.647 42.0795 264.647 42.7614C264.647 43.4375 264.522 44.0284 264.272 44.5341C264.025 45.0398 263.678 45.4332 263.232 45.7145C262.789 45.9957 262.272 46.1364 261.681 46.1364ZM261.681 45.233C262.13 45.233 262.499 45.1179 262.789 44.8878C263.079 44.6577 263.293 44.3551 263.433 43.9801C263.572 43.6051 263.641 43.1989 263.641 42.7614C263.641 42.3239 263.572 41.9162 263.433 41.5384C263.293 41.1605 263.079 40.8551 262.789 40.6222C262.499 40.3892 262.13 40.2727 261.681 40.2727C261.232 40.2727 260.863 40.3892 260.573 40.6222C260.283 40.8551 260.069 41.1605 259.93 41.5384C259.79 41.9162 259.721 42.3239 259.721 42.7614C259.721 43.1989 259.79 43.6051 259.93 43.9801C260.069 44.3551 260.283 44.6577 260.573 44.8878C260.863 45.1179 261.232 45.233 261.681 45.233ZM267.188 42.0625V46H266.182V39.4545H267.154V40.4773H267.239C267.392 40.1449 267.625 39.8778 267.938 39.6761C268.25 39.4716 268.654 39.3693 269.148 39.3693C269.591 39.3693 269.979 39.4602 270.311 39.642C270.644 39.821 270.902 40.0938 271.087 40.4602C271.272 40.8239 271.364 41.2841 271.364 41.8409V46H270.358V41.9091C270.358 41.3949 270.225 40.9943 269.958 40.7074C269.691 40.4176 269.324 40.2727 268.858 40.2727C268.537 40.2727 268.25 40.3423 267.998 40.4815C267.748 40.6207 267.55 40.8239 267.405 41.0909C267.26 41.358 267.188 41.6818 267.188 42.0625Z" fill="white"/>
<rect x="199" y="24" width="224" height="2" fill="white"/>
<path d="M1714 25H1759V44H1718C1715.79 44 1714 42.2091 1714 40V25Z" fill="#2C2C2C"/>
<path d="M1735.3 30.4439C1735.06 30.1984 1734.67 30.1984 1734.43 30.4439C1734.19 30.6893 1734.19 31.0873 1734.43 31.3327L1737.14 34.1138L1734.65 36.6661C1734.42 36.9115 1734.42 37.3095 1734.65 37.555C1734.89 37.8004 1735.28 37.8004 1735.52 37.555L1738 35.0027L1740.48 37.555C1740.72 37.8004 1741.11 37.8004 1741.35 37.555C1741.58 37.3095 1741.58 36.9115 1741.35 36.6661L1738.86 34.1138L1741.57 31.3328C1741.81 31.0873 1741.81 30.6893 1741.57 30.4439C1741.33 30.1984 1740.94 30.1984 1740.7 30.4439L1738 33.2249L1735.3 30.4439Z" fill="white" fill-opacity="0.4"/>
<path d="M1697.5 37.5V32.5H1706.5V37.5H1697.5Z" stroke="white" stroke-opacity="0.4"/>
<path d="M1671 37H1679" stroke="white" stroke-opacity="0.4" stroke-width="2"/>
</g>
</g>
<g clip-path="url(#clip3_645_3355)">
<rect x="631" y="526" width="732" height="159" fill="#CDFF04"/>
<path d="M272.091 395.909V489H252.727V395.909H272.091ZM319.42 490.364C312.239 490.364 306.057 488.909 300.875 486C295.723 483.061 291.754 478.909 288.966 473.545C286.178 468.152 284.784 461.773 284.784 454.409C284.784 447.227 286.178 440.924 288.966 435.5C291.754 430.076 295.678 425.848 300.739 422.818C305.83 419.788 311.799 418.273 318.648 418.273C323.254 418.273 327.542 419.015 331.511 420.5C335.511 421.955 338.996 424.152 341.966 427.091C344.966 430.03 347.299 433.727 348.966 438.182C350.633 442.606 351.466 447.788 351.466 453.727V459.045H292.511V447.045H333.239C333.239 444.258 332.633 441.788 331.42 439.636C330.208 437.485 328.527 435.803 326.375 434.591C324.254 433.348 321.784 432.727 318.966 432.727C316.027 432.727 313.42 433.409 311.148 434.773C308.905 436.106 307.148 437.909 305.875 440.182C304.602 442.424 303.951 444.924 303.92 447.682V459.091C303.92 462.545 304.557 465.53 305.83 468.045C307.133 470.561 308.966 472.5 311.33 473.864C313.693 475.227 316.496 475.909 319.739 475.909C321.89 475.909 323.86 475.606 325.648 475C327.436 474.394 328.966 473.485 330.239 472.273C331.511 471.061 332.481 469.576 333.148 467.818L351.057 469C350.148 473.303 348.284 477.061 345.466 480.273C342.678 483.455 339.072 485.939 334.648 487.727C330.254 489.485 325.178 490.364 319.42 490.364ZM401.239 419.182V433.727H359.193V419.182H401.239ZM368.739 402.455H388.102V467.545C388.102 469.333 388.375 470.727 388.92 471.727C389.466 472.697 390.223 473.379 391.193 473.773C392.193 474.167 393.345 474.364 394.648 474.364C395.557 474.364 396.466 474.288 397.375 474.136C398.284 473.955 398.981 473.818 399.466 473.727L402.511 488.136C401.542 488.439 400.178 488.788 398.42 489.182C396.663 489.606 394.527 489.864 392.011 489.955C387.345 490.136 383.254 489.515 379.739 488.091C376.254 486.667 373.542 484.455 371.602 481.455C369.663 478.455 368.708 474.667 368.739 470.091V402.455ZM471.068 439.091L453.341 440.182C453.038 438.667 452.386 437.303 451.386 436.091C450.386 434.848 449.068 433.864 447.432 433.136C445.826 432.379 443.902 432 441.659 432C438.659 432 436.129 432.636 434.068 433.909C432.008 435.152 430.977 436.818 430.977 438.909C430.977 440.576 431.644 441.985 432.977 443.136C434.311 444.288 436.598 445.212 439.841 445.909L452.477 448.455C459.265 449.848 464.326 452.091 467.659 455.182C470.992 458.273 472.659 462.333 472.659 467.364C472.659 471.939 471.311 475.955 468.614 479.409C465.947 482.864 462.28 485.561 457.614 487.5C452.977 489.409 447.629 490.364 441.568 490.364C432.326 490.364 424.962 488.439 419.477 484.591C414.023 480.712 410.826 475.439 409.886 468.773L428.932 467.773C429.508 470.591 430.902 472.742 433.114 474.227C435.326 475.682 438.159 476.409 441.614 476.409C445.008 476.409 447.735 475.758 449.795 474.455C451.886 473.121 452.947 471.409 452.977 469.318C452.947 467.561 452.205 466.121 450.75 465C449.295 463.848 447.053 462.97 444.023 462.364L431.932 459.955C425.114 458.591 420.038 456.227 416.705 452.864C413.402 449.5 411.75 445.212 411.75 440C411.75 435.515 412.962 431.652 415.386 428.409C417.841 425.167 421.28 422.667 425.705 420.909C430.159 419.152 435.371 418.273 441.341 418.273C450.159 418.273 457.098 420.136 462.159 423.864C467.25 427.591 470.22 432.667 471.068 439.091ZM514.477 489V419.182H532.932V431.5H533.75C535.205 427.409 537.629 424.182 541.023 421.818C544.417 419.455 548.477 418.273 553.205 418.273C557.992 418.273 562.068 419.47 565.432 421.864C568.795 424.227 571.038 427.439 572.159 431.5H572.886C574.311 427.5 576.886 424.303 580.614 421.909C584.371 419.485 588.811 418.273 593.932 418.273C600.447 418.273 605.735 420.348 609.795 424.5C613.886 428.621 615.932 434.47 615.932 442.045V489H596.614V445.864C596.614 441.985 595.583 439.076 593.523 437.136C591.462 435.197 588.886 434.227 585.795 434.227C582.28 434.227 579.538 435.348 577.568 437.591C575.598 439.803 574.614 442.727 574.614 446.364V489H555.841V445.455C555.841 442.03 554.856 439.303 552.886 437.273C550.947 435.242 548.386 434.227 545.205 434.227C543.053 434.227 541.114 434.773 539.386 435.864C537.689 436.924 536.341 438.424 535.341 440.364C534.341 442.273 533.841 444.515 533.841 447.091V489H514.477ZM651.136 490.318C646.682 490.318 642.712 489.545 639.227 488C635.742 486.424 632.985 484.106 630.955 481.045C628.955 477.955 627.955 474.106 627.955 469.5C627.955 465.621 628.667 462.364 630.091 459.727C631.515 457.091 633.455 454.97 635.909 453.364C638.364 451.758 641.152 450.545 644.273 449.727C647.424 448.909 650.727 448.333 654.182 448C658.242 447.576 661.515 447.182 664 446.818C666.485 446.424 668.288 445.848 669.409 445.091C670.53 444.333 671.091 443.212 671.091 441.727V441.455C671.091 438.576 670.182 436.348 668.364 434.773C666.576 433.197 664.03 432.409 660.727 432.409C657.242 432.409 654.47 433.182 652.409 434.727C650.348 436.242 648.985 438.152 648.318 440.455L630.409 439C631.318 434.758 633.106 431.091 635.773 428C638.439 424.879 641.879 422.485 646.091 420.818C650.333 419.121 655.242 418.273 660.818 418.273C664.697 418.273 668.409 418.727 671.955 419.636C675.53 420.545 678.697 421.955 681.455 423.864C684.242 425.773 686.439 428.227 688.045 431.227C689.652 434.197 690.455 437.758 690.455 441.909V489H672.091V479.318H671.545C670.424 481.5 668.924 483.424 667.045 485.091C665.167 486.727 662.909 488.015 660.273 488.955C657.636 489.864 654.591 490.318 651.136 490.318ZM656.682 476.955C659.53 476.955 662.045 476.394 664.227 475.273C666.409 474.121 668.121 472.576 669.364 470.636C670.606 468.697 671.227 466.5 671.227 464.045V456.636C670.621 457.03 669.788 457.394 668.727 457.727C667.697 458.03 666.53 458.318 665.227 458.591C663.924 458.833 662.621 459.061 661.318 459.273C660.015 459.455 658.833 459.621 657.773 459.773C655.5 460.106 653.515 460.636 651.818 461.364C650.121 462.091 648.803 463.076 647.864 464.318C646.924 465.53 646.455 467.045 646.455 468.864C646.455 471.5 647.409 473.515 649.318 474.909C651.258 476.273 653.712 476.955 656.682 476.955ZM723.023 468.909L723.068 445.682H725.886L748.25 419.182H770.477L740.432 454.273H735.841L723.023 468.909ZM705.477 489V395.909H724.841V489H705.477ZM749.114 489L728.568 458.591L741.477 444.909L771.795 489H749.114ZM808.92 490.364C801.739 490.364 795.557 488.909 790.375 486C785.223 483.061 781.254 478.909 778.466 473.545C775.678 468.152 774.284 461.773 774.284 454.409C774.284 447.227 775.678 440.924 778.466 435.5C781.254 430.076 785.178 425.848 790.239 422.818C795.33 419.788 801.299 418.273 808.148 418.273C812.754 418.273 817.042 419.015 821.011 420.5C825.011 421.955 828.496 424.152 831.466 427.091C834.466 430.03 836.799 433.727 838.466 438.182C840.133 442.606 840.966 447.788 840.966 453.727V459.045H782.011V447.045H822.739C822.739 444.258 822.133 441.788 820.92 439.636C819.708 437.485 818.027 435.803 815.875 434.591C813.754 433.348 811.284 432.727 808.466 432.727C805.527 432.727 802.92 433.409 800.648 434.773C798.405 436.106 796.648 437.909 795.375 440.182C794.102 442.424 793.451 444.924 793.42 447.682V459.091C793.42 462.545 794.057 465.53 795.33 468.045C796.633 470.561 798.466 472.5 800.83 473.864C803.193 475.227 805.996 475.909 809.239 475.909C811.39 475.909 813.36 475.606 815.148 475C816.936 474.394 818.466 473.485 819.739 472.273C821.011 471.061 821.981 469.576 822.648 467.818L840.557 469C839.648 473.303 837.784 477.061 834.966 480.273C832.178 483.455 828.572 485.939 824.148 487.727C819.754 489.485 814.678 490.364 808.92 490.364ZM895.182 515.182C892.727 515.182 890.424 514.985 888.273 514.591C886.152 514.227 884.394 513.758 883 513.182L887.364 498.727C889.636 499.424 891.682 499.803 893.5 499.864C895.348 499.924 896.939 499.5 898.273 498.591C899.636 497.682 900.742 496.136 901.591 493.955L902.727 491L877.682 419.182H898.045L912.5 470.455H913.227L927.818 419.182H948.318L921.182 496.545C919.879 500.303 918.106 503.576 915.864 506.364C913.652 509.182 910.848 511.348 907.455 512.864C904.061 514.409 899.97 515.182 895.182 515.182ZM987.523 490.364C980.462 490.364 974.356 488.864 969.205 485.864C964.083 482.833 960.129 478.621 957.341 473.227C954.553 467.803 953.159 461.515 953.159 454.364C953.159 447.152 954.553 440.848 957.341 435.455C960.129 430.03 964.083 425.818 969.205 422.818C974.356 419.788 980.462 418.273 987.523 418.273C994.583 418.273 1000.67 419.788 1005.8 422.818C1010.95 425.818 1014.92 430.03 1017.7 435.455C1020.49 440.848 1021.89 447.152 1021.89 454.364C1021.89 461.515 1020.49 467.803 1017.7 473.227C1014.92 478.621 1010.95 482.833 1005.8 485.864C1000.67 488.864 994.583 490.364 987.523 490.364ZM987.614 475.364C990.826 475.364 993.508 474.455 995.659 472.636C997.811 470.788 999.432 468.273 1000.52 465.091C1001.64 461.909 1002.2 458.288 1002.2 454.227C1002.2 450.167 1001.64 446.545 1000.52 443.364C999.432 440.182 997.811 437.667 995.659 435.818C993.508 433.97 990.826 433.045 987.614 433.045C984.371 433.045 981.644 433.97 979.432 435.818C977.25 437.667 975.598 440.182 974.477 443.364C973.386 446.545 972.841 450.167 972.841 454.227C972.841 458.288 973.386 461.909 974.477 465.091C975.598 468.273 977.25 470.788 979.432 472.636C981.644 474.455 984.371 475.364 987.614 475.364ZM1079.25 459.273V419.182H1098.61V489H1080.02V476.318H1079.3C1077.72 480.409 1075.1 483.697 1071.43 486.182C1067.8 488.667 1063.36 489.909 1058.11 489.909C1053.45 489.909 1049.34 488.848 1045.8 486.727C1042.25 484.606 1039.48 481.591 1037.48 477.682C1035.51 473.773 1034.51 469.091 1034.48 463.636V419.182H1053.84V460.182C1053.87 464.303 1054.98 467.561 1057.16 469.955C1059.34 472.348 1062.27 473.545 1065.93 473.545C1068.27 473.545 1070.45 473.015 1072.48 471.955C1074.51 470.864 1076.14 469.258 1077.39 467.136C1078.66 465.015 1079.28 462.394 1079.25 459.273ZM1114.1 489V419.182H1132.88V431.364H1133.6C1134.88 427.03 1137.01 423.758 1140.01 421.545C1143.01 419.303 1146.47 418.182 1150.38 418.182C1151.34 418.182 1152.39 418.242 1153.51 418.364C1154.63 418.485 1155.62 418.652 1156.47 418.864V436.045C1155.56 435.773 1154.3 435.53 1152.69 435.318C1151.09 435.106 1149.62 435 1148.28 435C1145.44 435 1142.89 435.621 1140.65 436.864C1138.44 438.076 1136.68 439.773 1135.38 441.955C1134.1 444.136 1133.47 446.652 1133.47 449.5V489H1114.1ZM1221.83 490.136C1216.53 490.136 1211.72 488.773 1207.42 486.045C1203.15 483.288 1199.75 479.242 1197.24 473.909C1194.75 468.545 1193.51 461.97 1193.51 454.182C1193.51 446.182 1194.8 439.53 1197.38 434.227C1199.95 428.894 1203.38 424.909 1207.65 422.273C1211.95 419.606 1216.66 418.273 1221.78 418.273C1225.69 418.273 1228.95 418.939 1231.56 420.273C1234.19 421.576 1236.31 423.212 1237.92 425.182C1239.56 427.121 1240.8 429.03 1241.65 430.909H1242.24V395.909H1261.56V489H1242.47V477.818H1241.65C1240.74 479.758 1239.45 481.682 1237.78 483.591C1236.15 485.47 1234.01 487.03 1231.38 488.273C1228.77 489.515 1225.59 490.136 1221.83 490.136ZM1227.97 474.727C1231.09 474.727 1233.72 473.879 1235.88 472.182C1238.06 470.455 1239.72 468.045 1240.88 464.955C1242.06 461.864 1242.65 458.242 1242.65 454.091C1242.65 449.939 1242.07 446.333 1240.92 443.273C1239.77 440.212 1238.1 437.848 1235.92 436.182C1233.74 434.515 1231.09 433.682 1227.97 433.682C1224.78 433.682 1222.1 434.545 1219.92 436.273C1217.74 438 1216.09 440.394 1214.97 443.455C1213.84 446.515 1213.28 450.061 1213.28 454.091C1213.28 458.152 1213.84 461.742 1214.97 464.864C1216.12 467.955 1217.77 470.379 1219.92 472.136C1222.1 473.864 1224.78 474.727 1227.97 474.727ZM1277.48 489V419.182H1296.25V431.364H1296.98C1298.25 427.03 1300.39 423.758 1303.39 421.545C1306.39 419.303 1309.84 418.182 1313.75 418.182C1314.72 418.182 1315.77 418.242 1316.89 418.364C1318.01 418.485 1318.99 418.652 1319.84 418.864V436.045C1318.93 435.773 1317.67 435.53 1316.07 435.318C1314.46 435.106 1312.99 435 1311.66 435C1308.81 435 1306.27 435.621 1304.02 436.864C1301.81 438.076 1300.05 439.773 1298.75 441.955C1297.48 444.136 1296.84 446.652 1296.84 449.5V489H1277.48ZM1358.42 490.364C1351.24 490.364 1345.06 488.909 1339.88 486C1334.72 483.061 1330.75 478.909 1327.97 473.545C1325.18 468.152 1323.78 461.773 1323.78 454.409C1323.78 447.227 1325.18 440.924 1327.97 435.5C1330.75 430.076 1334.68 425.848 1339.74 422.818C1344.83 419.788 1350.8 418.273 1357.65 418.273C1362.25 418.273 1366.54 419.015 1370.51 420.5C1374.51 421.955 1378 424.152 1380.97 427.091C1383.97 430.03 1386.3 433.727 1387.97 438.182C1389.63 442.606 1390.47 447.788 1390.47 453.727V459.045H1331.51V447.045H1372.24C1372.24 444.258 1371.63 441.788 1370.42 439.636C1369.21 437.485 1367.53 435.803 1365.38 434.591C1363.25 433.348 1360.78 432.727 1357.97 432.727C1355.03 432.727 1352.42 433.409 1350.15 434.773C1347.91 436.106 1346.15 437.909 1344.88 440.182C1343.6 442.424 1342.95 444.924 1342.92 447.682V459.091C1342.92 462.545 1343.56 465.53 1344.83 468.045C1346.13 470.561 1347.97 472.5 1350.33 473.864C1352.69 475.227 1355.5 475.909 1358.74 475.909C1360.89 475.909 1362.86 475.606 1364.65 475C1366.44 474.394 1367.97 473.485 1369.24 472.273C1370.51 471.061 1371.48 469.576 1372.15 467.818L1390.06 469C1389.15 473.303 1387.28 477.061 1384.47 480.273C1381.68 483.455 1378.07 485.939 1373.65 487.727C1369.25 489.485 1364.18 490.364 1358.42 490.364ZM1423.01 490.318C1418.56 490.318 1414.59 489.545 1411.1 488C1407.62 486.424 1404.86 484.106 1402.83 481.045C1400.83 477.955 1399.83 474.106 1399.83 469.5C1399.83 465.621 1400.54 462.364 1401.97 459.727C1403.39 457.091 1405.33 454.97 1407.78 453.364C1410.24 451.758 1413.03 450.545 1416.15 449.727C1419.3 448.909 1422.6 448.333 1426.06 448C1430.12 447.576 1433.39 447.182 1435.88 446.818C1438.36 446.424 1440.16 445.848 1441.28 445.091C1442.41 444.333 1442.97 443.212 1442.97 441.727V441.455C1442.97 438.576 1442.06 436.348 1440.24 434.773C1438.45 433.197 1435.91 432.409 1432.6 432.409C1429.12 432.409 1426.34 433.182 1424.28 434.727C1422.22 436.242 1420.86 438.152 1420.19 440.455L1402.28 439C1403.19 434.758 1404.98 431.091 1407.65 428C1410.31 424.879 1413.75 422.485 1417.97 420.818C1422.21 419.121 1427.12 418.273 1432.69 418.273C1436.57 418.273 1440.28 418.727 1443.83 419.636C1447.41 420.545 1450.57 421.955 1453.33 423.864C1456.12 425.773 1458.31 428.227 1459.92 431.227C1461.53 434.197 1462.33 437.758 1462.33 441.909V489H1443.97V479.318H1443.42C1442.3 481.5 1440.8 483.424 1438.92 485.091C1437.04 486.727 1434.78 488.015 1432.15 488.955C1429.51 489.864 1426.47 490.318 1423.01 490.318ZM1428.56 476.955C1431.41 476.955 1433.92 476.394 1436.1 475.273C1438.28 474.121 1440 472.576 1441.24 470.636C1442.48 468.697 1443.1 466.5 1443.1 464.045V456.636C1442.5 457.03 1441.66 457.394 1440.6 457.727C1439.57 458.03 1438.41 458.318 1437.1 458.591C1435.8 458.833 1434.5 459.061 1433.19 459.273C1431.89 459.455 1430.71 459.621 1429.65 459.773C1427.38 460.106 1425.39 460.636 1423.69 461.364C1422 462.091 1420.68 463.076 1419.74 464.318C1418.8 465.53 1418.33 467.045 1418.33 468.864C1418.33 471.5 1419.28 473.515 1421.19 474.909C1423.13 476.273 1425.59 476.955 1428.56 476.955ZM1477.35 489V419.182H1495.81V431.5H1496.62C1498.08 427.409 1500.5 424.182 1503.9 421.818C1507.29 419.455 1511.35 418.273 1516.08 418.273C1520.87 418.273 1524.94 419.47 1528.31 421.864C1531.67 424.227 1533.91 427.439 1535.03 431.5H1535.76C1537.19 427.5 1539.76 424.303 1543.49 421.909C1547.25 419.485 1551.69 418.273 1556.81 418.273C1563.32 418.273 1568.61 420.348 1572.67 424.5C1576.76 428.621 1578.81 434.47 1578.81 442.045V489H1559.49V445.864C1559.49 441.985 1558.46 439.076 1556.4 437.136C1554.34 435.197 1551.76 434.227 1548.67 434.227C1545.16 434.227 1542.41 435.348 1540.44 437.591C1538.47 439.803 1537.49 442.727 1537.49 446.364V489H1518.72V445.455C1518.72 442.03 1517.73 439.303 1515.76 437.273C1513.82 435.242 1511.26 434.227 1508.08 434.227C1505.93 434.227 1503.99 434.773 1502.26 435.864C1500.56 436.924 1499.22 438.424 1498.22 440.364C1497.22 442.273 1496.72 444.515 1496.72 447.091V489H1477.35ZM1652.19 439.091L1634.47 440.182C1634.16 438.667 1633.51 437.303 1632.51 436.091C1631.51 434.848 1630.19 433.864 1628.56 433.136C1626.95 432.379 1625.03 432 1622.78 432C1619.78 432 1617.25 432.636 1615.19 433.909C1613.13 435.152 1612.1 436.818 1612.1 438.909C1612.1 440.576 1612.77 441.985 1614.1 443.136C1615.44 444.288 1617.72 445.212 1620.97 445.909L1633.6 448.455C1640.39 449.848 1645.45 452.091 1648.78 455.182C1652.12 458.273 1653.78 462.333 1653.78 467.364C1653.78 471.939 1652.44 475.955 1649.74 479.409C1647.07 482.864 1643.41 485.561 1638.74 487.5C1634.1 489.409 1628.75 490.364 1622.69 490.364C1613.45 490.364 1606.09 488.439 1600.6 484.591C1595.15 480.712 1591.95 475.439 1591.01 468.773L1610.06 467.773C1610.63 470.591 1612.03 472.742 1614.24 474.227C1616.45 475.682 1619.28 476.409 1622.74 476.409C1626.13 476.409 1628.86 475.758 1630.92 474.455C1633.01 473.121 1634.07 471.409 1634.1 469.318C1634.07 467.561 1633.33 466.121 1631.88 465C1630.42 463.848 1628.18 462.97 1625.15 462.364L1613.06 459.955C1606.24 458.591 1601.16 456.227 1597.83 452.864C1594.53 449.5 1592.88 445.212 1592.88 440C1592.88 435.515 1594.09 431.652 1596.51 428.409C1598.97 425.167 1602.41 422.667 1606.83 420.909C1611.28 419.152 1616.5 418.273 1622.47 418.273C1631.28 418.273 1638.22 420.136 1643.28 423.864C1648.38 427.591 1651.34 432.667 1652.19 439.091Z" fill="#0B0A0A"/>
<path d="M526.864 574.182V588.727H484.818V574.182H526.864ZM494.364 557.455H513.727V622.545C513.727 624.333 514 625.727 514.545 626.727C515.091 627.697 515.848 628.379 516.818 628.773C517.818 629.167 518.97 629.364 520.273 629.364C521.182 629.364 522.091 629.288 523 629.136C523.909 628.955 524.606 628.818 525.091 628.727L528.136 643.136C527.167 643.439 525.803 643.788 524.045 644.182C522.288 644.606 520.152 644.864 517.636 644.955C512.97 645.136 508.879 644.515 505.364 643.091C501.879 641.667 499.167 639.455 497.227 636.455C495.288 633.455 494.333 629.667 494.364 625.091V557.455ZM570.273 645.364C563.212 645.364 557.106 643.864 551.955 640.864C546.833 637.833 542.879 633.621 540.091 628.227C537.303 622.803 535.909 616.515 535.909 609.364C535.909 602.152 537.303 595.848 540.091 590.455C542.879 585.03 546.833 580.818 551.955 577.818C557.106 574.788 563.212 573.273 570.273 573.273C577.333 573.273 583.424 574.788 588.545 577.818C593.697 580.818 597.667 585.03 600.455 590.455C603.242 595.848 604.636 602.152 604.636 609.364C604.636 616.515 603.242 622.803 600.455 628.227C597.667 633.621 593.697 637.833 588.545 640.864C583.424 643.864 577.333 645.364 570.273 645.364ZM570.364 630.364C573.576 630.364 576.258 629.455 578.409 627.636C580.561 625.788 582.182 623.273 583.273 620.091C584.394 616.909 584.955 613.288 584.955 609.227C584.955 605.167 584.394 601.545 583.273 598.364C582.182 595.182 580.561 592.667 578.409 590.818C576.258 588.97 573.576 588.045 570.364 588.045C567.121 588.045 564.394 588.97 562.182 590.818C560 592.667 558.348 595.182 557.227 598.364C556.136 601.545 555.591 605.167 555.591 609.227C555.591 613.288 556.136 616.909 557.227 620.091C558.348 623.273 560 625.788 562.182 627.636C564.394 629.455 567.121 630.364 570.364 630.364Z" fill="#121212"/>
<path d="M676.477 644V574.182H695.25V586.364H695.977C697.25 582.03 699.386 578.758 702.386 576.545C705.386 574.303 708.841 573.182 712.75 573.182C713.72 573.182 714.765 573.242 715.886 573.364C717.008 573.485 717.992 573.652 718.841 573.864V591.045C717.932 590.773 716.674 590.53 715.068 590.318C713.462 590.106 711.992 590 710.659 590C707.811 590 705.265 590.621 703.023 591.864C700.811 593.076 699.053 594.773 697.75 596.955C696.477 599.136 695.841 601.652 695.841 604.5V644H676.477ZM757.42 645.364C750.239 645.364 744.057 643.909 738.875 641C733.723 638.061 729.754 633.909 726.966 628.545C724.178 623.152 722.784 616.773 722.784 609.409C722.784 602.227 724.178 595.924 726.966 590.5C729.754 585.076 733.678 580.848 738.739 577.818C743.83 574.788 749.799 573.273 756.648 573.273C761.254 573.273 765.542 574.015 769.511 575.5C773.511 576.955 776.996 579.152 779.966 582.091C782.966 585.03 785.299 588.727 786.966 593.182C788.633 597.606 789.466 602.788 789.466 608.727V614.045H730.511V602.045H771.239C771.239 599.258 770.633 596.788 769.42 594.636C768.208 592.485 766.527 590.803 764.375 589.591C762.254 588.348 759.784 587.727 756.966 587.727C754.027 587.727 751.42 588.409 749.148 589.773C746.905 591.106 745.148 592.909 743.875 595.182C742.602 597.424 741.951 599.924 741.92 602.682V614.091C741.92 617.545 742.557 620.53 743.83 623.045C745.133 625.561 746.966 627.5 749.33 628.864C751.693 630.227 754.496 630.909 757.739 630.909C759.89 630.909 761.86 630.606 763.648 630C765.436 629.394 766.966 628.485 768.239 627.273C769.511 626.061 770.481 624.576 771.148 622.818L789.057 624C788.148 628.303 786.284 632.061 783.466 635.273C780.678 638.455 777.072 640.939 772.648 642.727C768.254 644.485 763.178 645.364 757.42 645.364ZM822.011 645.318C817.557 645.318 813.587 644.545 810.102 643C806.617 641.424 803.86 639.106 801.83 636.045C799.83 632.955 798.83 629.106 798.83 624.5C798.83 620.621 799.542 617.364 800.966 614.727C802.39 612.091 804.33 609.97 806.784 608.364C809.239 606.758 812.027 605.545 815.148 604.727C818.299 603.909 821.602 603.333 825.057 603C829.117 602.576 832.39 602.182 834.875 601.818C837.36 601.424 839.163 600.848 840.284 600.091C841.405 599.333 841.966 598.212 841.966 596.727V596.455C841.966 593.576 841.057 591.348 839.239 589.773C837.451 588.197 834.905 587.409 831.602 587.409C828.117 587.409 825.345 588.182 823.284 589.727C821.223 591.242 819.86 593.152 819.193 595.455L801.284 594C802.193 589.758 803.981 586.091 806.648 583C809.314 579.879 812.754 577.485 816.966 575.818C821.208 574.121 826.117 573.273 831.693 573.273C835.572 573.273 839.284 573.727 842.83 574.636C846.405 575.545 849.572 576.955 852.33 578.864C855.117 580.773 857.314 583.227 858.92 586.227C860.527 589.197 861.33 592.758 861.33 596.909V644H842.966V634.318H842.42C841.299 636.5 839.799 638.424 837.92 640.091C836.042 641.727 833.784 643.015 831.148 643.955C828.511 644.864 825.466 645.318 822.011 645.318ZM827.557 631.955C830.405 631.955 832.92 631.394 835.102 630.273C837.284 629.121 838.996 627.576 840.239 625.636C841.481 623.697 842.102 621.5 842.102 619.045V611.636C841.496 612.03 840.663 612.394 839.602 612.727C838.572 613.03 837.405 613.318 836.102 613.591C834.799 613.833 833.496 614.061 832.193 614.273C830.89 614.455 829.708 614.621 828.648 614.773C826.375 615.106 824.39 615.636 822.693 616.364C820.996 617.091 819.678 618.076 818.739 619.318C817.799 620.53 817.33 622.045 817.33 623.864C817.33 626.5 818.284 628.515 820.193 629.909C822.133 631.273 824.587 631.955 827.557 631.955ZM895.716 550.909V644H876.352V550.909H895.716ZM977.989 574.182V588.727H935.943V574.182H977.989ZM945.489 557.455H964.852V622.545C964.852 624.333 965.125 625.727 965.67 626.727C966.216 627.697 966.973 628.379 967.943 628.773C968.943 629.167 970.095 629.364 971.398 629.364C972.307 629.364 973.216 629.288 974.125 629.136C975.034 628.955 975.731 628.818 976.216 628.727L979.261 643.136C978.292 643.439 976.928 643.788 975.17 644.182C973.413 644.606 971.277 644.864 968.761 644.955C964.095 645.136 960.004 644.515 956.489 643.091C953.004 641.667 950.292 639.455 948.352 636.455C946.413 633.455 945.458 629.667 945.489 625.091V557.455ZM1011.47 603.636V644H992.102V550.909H1010.92V586.5H1011.74C1013.31 582.379 1015.86 579.152 1019.38 576.818C1022.89 574.455 1027.3 573.273 1032.6 573.273C1037.45 573.273 1041.68 574.333 1045.28 576.455C1048.92 578.545 1051.74 581.561 1053.74 585.5C1055.77 589.409 1056.77 594.091 1056.74 599.545V644H1037.38V603C1037.41 598.697 1036.31 595.348 1034.1 592.955C1031.92 590.561 1028.86 589.364 1024.92 589.364C1022.28 589.364 1019.95 589.924 1017.92 591.045C1015.92 592.167 1014.34 593.803 1013.19 595.955C1012.07 598.076 1011.5 600.636 1011.47 603.636ZM1071.98 644V574.182H1091.34V644H1071.98ZM1081.7 565.182C1078.83 565.182 1076.36 564.227 1074.3 562.318C1072.27 560.379 1071.25 558.061 1071.25 555.364C1071.25 552.697 1072.27 550.409 1074.3 548.5C1076.36 546.561 1078.83 545.591 1081.7 545.591C1084.58 545.591 1087.04 546.561 1089.07 548.5C1091.13 550.409 1092.16 552.697 1092.16 555.364C1092.16 558.061 1091.13 560.379 1089.07 562.318C1087.04 564.227 1084.58 565.182 1081.7 565.182ZM1126.22 603.636V644H1106.85V574.182H1125.31V586.5H1126.12C1127.67 582.439 1130.26 579.227 1133.9 576.864C1137.53 574.47 1141.94 573.273 1147.12 573.273C1151.97 573.273 1156.2 574.333 1159.81 576.455C1163.41 578.576 1166.22 581.606 1168.22 585.545C1170.22 589.455 1171.22 594.121 1171.22 599.545V644H1151.85V603C1151.88 598.727 1150.79 595.394 1148.58 593C1146.37 590.576 1143.32 589.364 1139.44 589.364C1136.84 589.364 1134.53 589.924 1132.53 591.045C1130.56 592.167 1129.02 593.803 1127.9 595.955C1126.81 598.076 1126.25 600.636 1126.22 603.636ZM1217.93 671.636C1211.66 671.636 1206.28 670.773 1201.8 669.045C1197.34 667.348 1193.8 665.03 1191.16 662.091C1188.52 659.152 1186.81 655.848 1186.02 652.182L1203.93 649.773C1204.48 651.167 1205.34 652.47 1206.52 653.682C1207.7 654.894 1209.27 655.864 1211.2 656.591C1213.17 657.348 1215.57 657.727 1218.39 657.727C1222.6 657.727 1226.07 656.697 1228.8 654.636C1231.55 652.606 1232.93 649.197 1232.93 644.409V631.636H1232.11C1231.27 633.576 1229.99 635.409 1228.3 637.136C1226.6 638.864 1224.42 640.273 1221.75 641.364C1219.08 642.455 1215.9 643 1212.2 643C1206.96 643 1202.19 641.788 1197.89 639.364C1193.61 636.909 1190.2 633.167 1187.66 628.136C1185.14 623.076 1183.89 616.682 1183.89 608.955C1183.89 601.045 1185.17 594.439 1187.75 589.136C1190.33 583.833 1193.75 579.864 1198.02 577.227C1202.33 574.591 1207.04 573.273 1212.16 573.273C1216.07 573.273 1219.34 573.939 1221.98 575.273C1224.61 576.576 1226.73 578.212 1228.34 580.182C1229.98 582.121 1231.23 584.03 1232.11 585.909H1232.84V574.182H1252.07V644.682C1252.07 650.621 1250.61 655.591 1247.7 659.591C1244.8 663.591 1240.77 666.591 1235.61 668.591C1230.49 670.621 1224.6 671.636 1217.93 671.636ZM1218.34 628.455C1221.46 628.455 1224.1 627.682 1226.25 626.136C1228.43 624.561 1230.1 622.318 1231.25 619.409C1232.43 616.47 1233.02 612.955 1233.02 608.864C1233.02 604.773 1232.45 601.227 1231.3 598.227C1230.14 595.197 1228.48 592.848 1226.3 591.182C1224.11 589.515 1221.46 588.682 1218.34 588.682C1215.16 588.682 1212.48 589.545 1210.3 591.273C1208.11 592.97 1206.46 595.333 1205.34 598.364C1204.22 601.394 1203.66 604.894 1203.66 608.864C1203.66 612.894 1204.22 616.379 1205.34 619.318C1206.49 622.227 1208.14 624.485 1210.3 626.091C1212.48 627.667 1215.16 628.455 1218.34 628.455ZM1325.57 594.091L1307.84 595.182C1307.54 593.667 1306.89 592.303 1305.89 591.091C1304.89 589.848 1303.57 588.864 1301.93 588.136C1300.33 587.379 1298.4 587 1296.16 587C1293.16 587 1290.63 587.636 1288.57 588.909C1286.51 590.152 1285.48 591.818 1285.48 593.909C1285.48 595.576 1286.14 596.985 1287.48 598.136C1288.81 599.288 1291.1 600.212 1294.34 600.909L1306.98 603.455C1313.77 604.848 1318.83 607.091 1322.16 610.182C1325.49 613.273 1327.16 617.333 1327.16 622.364C1327.16 626.939 1325.81 630.955 1323.11 634.409C1320.45 637.864 1316.78 640.561 1312.11 642.5C1307.48 644.409 1302.13 645.364 1296.07 645.364C1286.83 645.364 1279.46 643.439 1273.98 639.591C1268.52 635.712 1265.33 630.439 1264.39 623.773L1283.43 622.773C1284.01 625.591 1285.4 627.742 1287.61 629.227C1289.83 630.682 1292.66 631.409 1296.11 631.409C1299.51 631.409 1302.23 630.758 1304.3 629.455C1306.39 628.121 1307.45 626.409 1307.48 624.318C1307.45 622.561 1306.7 621.121 1305.25 620C1303.8 618.848 1301.55 617.97 1298.52 617.364L1286.43 614.955C1279.61 613.591 1274.54 611.227 1271.2 607.864C1267.9 604.5 1266.25 600.212 1266.25 595C1266.25 590.515 1267.46 586.652 1269.89 583.409C1272.34 580.167 1275.78 577.667 1280.2 575.909C1284.66 574.152 1289.87 573.273 1295.84 573.273C1304.66 573.273 1311.6 575.136 1316.66 578.864C1321.75 582.591 1324.72 587.667 1325.57 594.091Z" fill="white"/>
</g>
<defs>
<filter id="filter0_d_645_3355" x="-38.1" y="0.0800018" width="1940" height="1282" filterUnits="userSpaceOnUse" color-interpolation-filters="sRGB">
<feFlood flood-opacity="0" result="BackgroundImageFix"/>
<feColorMatrix in="SourceAlpha" type="matrix" values="0 0 0 0 0 0 0 0 0 0 0 0 0 0 0 0 0 0 127 0" result="hardAlpha"/>
<feOffset dx="-28.1" dy="146.08"/>
<feGaussianBlur stdDeviation="85"/>
<feColorMatrix type="matrix" values="0 0 0 0 0.470208 0 0 0 0 0.623313 0 0 0 0 0.7625 0 0 0 0.26 0"/>
<feBlend mode="multiply" in2="BackgroundImageFix" result="effect1_dropShadow_645_3355"/>
<feBlend mode="normal" in="SourceGraphic" in2="effect1_dropShadow_645_3355" result="shape"/>
</filter>
<clipPath id="clip0_645_3355">
<rect width="1600" height="868" fill="white" transform="translate(160 98)"/>
</clipPath>
<clipPath id="clip1_645_3355">
<rect width="16" height="868" fill="white" transform="translate(1744 98)"/>
</clipPath>
<clipPath id="clip2_645_3355">
<rect width="1600" height="33" fill="white" transform="translate(160 24)"/>
</clipPath>
<clipPath id="clip3_645_3355">
<rect width="1584" height="786" fill="white" transform="translate(160 96)"/>
</clipPath>
</defs>
</svg>
