<svg width="132" height="21" viewBox="0 0 132 21" fill="none" xmlns="http://www.w3.org/2000/svg">
<path d="M13.262 1.8C13.6433 1.8 13.9553 1.92133 14.198 2.164C14.4407 2.38933 14.562 2.684 14.562 3.048V18.726C14.5447 19.09 14.4147 19.3933 14.172 19.636C13.9293 19.8787 13.6173 20 13.236 20C12.8893 20 12.586 19.8787 12.326 19.636C12.0833 19.3933 11.962 19.09 11.962 18.726V11.992H2.732V18.726C2.732 19.09 2.602 19.3933 2.342 19.636C2.082 19.8787 1.77867 20 1.432 20C1.05067 20 0.738667 19.8787 0.496 19.636C0.270667 19.3933 0.158 19.09 0.158 18.726V3.048C0.158 2.70133 0.279333 2.40667 0.522 2.164C0.764667 1.92133 1.07667 1.8 1.458 1.8C1.80467 1.8 2.09933 1.92133 2.342 2.164C2.602 2.40667 2.732 2.70133 2.732 3.048V9.6H11.962V3.048C11.962 2.70133 12.092 2.40667 12.352 2.164C12.612 1.92133 12.9153 1.8 13.262 1.8ZM29.5835 6.194C29.9475 6.194 30.2422 6.31533 30.4675 6.558C30.7102 6.78333 30.8315 7.08667 30.8315 7.468V18.752C30.8315 19.0987 30.7102 19.3933 30.4675 19.636C30.2422 19.8787 29.9475 20 29.5835 20C29.2195 20 28.9248 19.8873 28.6995 19.662C28.4742 19.4193 28.3615 19.116 28.3615 18.752V18.076C27.9108 18.6827 27.2955 19.2027 26.5155 19.636C25.7355 20.052 24.8948 20.26 23.9935 20.26C22.8148 20.26 21.7402 19.9567 20.7695 19.35C19.8162 18.7433 19.0622 17.9027 18.5075 16.828C17.9702 15.736 17.7015 14.514 17.7015 13.162C17.7015 11.81 17.9702 10.5967 18.5075 9.522C19.0622 8.43 19.8162 7.58067 20.7695 6.974C21.7228 6.36733 22.7715 6.064 23.9155 6.064C24.8342 6.064 25.6835 6.25467 26.4635 6.636C27.2608 7.01733 27.8935 7.50267 28.3615 8.092V7.468C28.3615 7.104 28.4742 6.80067 28.6995 6.558C28.9248 6.31533 29.2195 6.194 29.5835 6.194ZM24.2795 17.972C25.0942 17.972 25.8135 17.764 26.4375 17.348C27.0788 16.932 27.5728 16.36 27.9195 15.632C28.2835 14.904 28.4655 14.0807 28.4655 13.162C28.4655 12.2607 28.2835 11.446 27.9195 10.718C27.5728 9.99 27.0788 9.418 26.4375 9.002C25.8135 8.56867 25.0942 8.352 24.2795 8.352C23.4648 8.352 22.7368 8.56 22.0955 8.976C21.4715 9.392 20.9775 9.964 20.6135 10.692C20.2668 11.42 20.0935 12.2433 20.0935 13.162C20.0935 14.0807 20.2668 14.904 20.6135 15.632C20.9775 16.36 21.4715 16.932 22.0955 17.348C22.7368 17.764 23.4648 17.972 24.2795 17.972ZM37.1822 18.752C37.1822 19.0987 37.0609 19.3933 36.8182 19.636C36.5755 19.8787 36.2809 20 35.9342 20C35.5875 20 35.2929 19.8787 35.0502 19.636C34.8249 19.3933 34.7122 19.0987 34.7122 18.752V2.008C34.7122 1.66133 34.8335 1.36667 35.0762 1.124C35.3189 0.881333 35.6135 0.76 35.9602 0.76C36.3069 0.76 36.5929 0.881333 36.8182 1.124C37.0609 1.36667 37.1822 1.66133 37.1822 2.008V18.752ZM43.4204 18.752C43.4204 19.0987 43.299 19.3933 43.0564 19.636C42.831 19.8787 42.5364 20 42.1724 20C41.8257 20 41.531 19.8787 41.2884 19.636C41.063 19.3933 40.9504 19.0987 40.9504 18.752V7.494C40.9504 7.14733 41.063 6.85267 41.2884 6.61C41.531 6.36733 41.8257 6.246 42.1724 6.246C42.5364 6.246 42.831 6.36733 43.0564 6.61C43.299 6.85267 43.4204 7.14733 43.4204 7.494V18.752ZM42.1724 4.53C41.6697 4.53 41.3057 4.44333 41.0804 4.27C40.8724 4.07933 40.7684 3.78467 40.7684 3.386V2.97C40.7684 2.554 40.881 2.25933 41.1064 2.086C41.349 1.91267 41.713 1.826 42.1984 1.826C42.6837 1.826 43.0304 1.92133 43.2384 2.112C43.4637 2.28533 43.5764 2.57133 43.5764 2.97V3.386C43.5764 3.802 43.4637 4.09667 43.2384 4.27C43.013 4.44333 42.6577 4.53 42.1724 4.53ZM50.663 8.794V16.542C50.663 17.4087 51.053 17.842 51.833 17.842C51.9543 17.842 52.119 17.816 52.327 17.764C52.535 17.6947 52.6997 17.66 52.821 17.66C53.0463 17.66 53.237 17.7553 53.393 17.946C53.549 18.1367 53.627 18.3793 53.627 18.674C53.627 19.038 53.419 19.35 53.003 19.61C52.587 19.87 52.119 20 51.599 20C51.027 20 50.4983 19.9393 50.013 19.818C49.545 19.6967 49.1203 19.3933 48.739 18.908C48.375 18.4053 48.193 17.6513 48.193 16.646V8.794H46.685C46.3557 8.794 46.0783 8.69 45.853 8.482C45.645 8.25667 45.541 7.97933 45.541 7.65C45.541 7.32067 45.645 7.052 45.853 6.844C46.0783 6.636 46.3557 6.532 46.685 6.532H48.193V4.348C48.193 4.00133 48.3057 3.70667 48.531 3.464C48.7737 3.22133 49.077 3.1 49.441 3.1C49.7877 3.1 50.0737 3.22133 50.299 3.464C50.5417 3.70667 50.663 4.00133 50.663 4.348V6.532H52.821C53.1503 6.532 53.419 6.64467 53.627 6.87C53.8523 7.078 53.965 7.34667 53.965 7.676C53.965 8.00533 53.8523 8.274 53.627 8.482C53.419 8.69 53.1503 8.794 52.821 8.794H50.663ZM69.8829 20.26C68.6176 20.26 67.4996 20.0867 66.5289 19.74C65.5582 19.376 64.6309 18.7953 63.7469 17.998C63.3829 17.686 63.2009 17.3307 63.2009 16.932C63.2009 16.62 63.3222 16.3427 63.5649 16.1C63.8076 15.84 64.0936 15.71 64.4229 15.71C64.7176 15.71 64.9689 15.8053 65.1769 15.996C65.8702 16.6373 66.5809 17.114 67.3089 17.426C68.0542 17.7207 68.8949 17.868 69.8309 17.868C70.9229 17.868 71.8416 17.6167 72.5869 17.114C73.3496 16.6113 73.7309 15.9787 73.7309 15.216C73.7136 14.3147 73.3322 13.6213 72.5869 13.136C71.8589 12.6333 70.7409 12.2173 69.2329 11.888C67.4476 11.524 66.0696 10.926 65.0989 10.094C64.1456 9.262 63.6689 8.10933 63.6689 6.636C63.6689 5.61333 63.9376 4.72067 64.4749 3.958C65.0122 3.178 65.7576 2.58 66.7109 2.164C67.6642 1.748 68.7389 1.54 69.9349 1.54C71.0096 1.54 72.0236 1.71333 72.9769 2.06C73.9302 2.40667 74.7016 2.866 75.2909 3.438C75.6896 3.78467 75.8889 4.15733 75.8889 4.556C75.8889 4.868 75.7676 5.14533 75.5249 5.388C75.2996 5.63067 75.0222 5.752 74.6929 5.752C74.4502 5.752 74.2509 5.68267 74.0949 5.544C73.6442 5.09333 73.0202 4.712 72.2229 4.4C71.4256 4.088 70.6629 3.932 69.9349 3.932C68.7736 3.932 67.8462 4.17467 67.1529 4.66C66.4769 5.128 66.1389 5.752 66.1389 6.532C66.1389 7.38133 66.4769 8.03133 67.1529 8.482C67.8462 8.93267 68.8689 9.314 70.2209 9.626C71.5729 9.92067 72.6736 10.2673 73.5229 10.666C74.3896 11.0647 75.0569 11.6193 75.5249 12.33C75.9929 13.0407 76.2269 13.968 76.2269 15.112C76.2269 16.1173 75.9409 17.01 75.3689 17.79C74.8142 18.57 74.0516 19.1767 73.0809 19.61C72.1102 20.0433 71.0442 20.26 69.8829 20.26ZM91.1517 12.668C91.1344 12.98 91.0044 13.2487 90.7617 13.474C90.519 13.682 90.233 13.786 89.9037 13.786H80.7517C80.873 15.0513 81.3497 16.0653 82.1817 16.828C83.031 17.5907 84.0624 17.972 85.2757 17.972C86.1077 17.972 86.7837 17.8507 87.3037 17.608C87.8237 17.3653 88.283 17.0533 88.6817 16.672C88.9417 16.516 89.193 16.438 89.4357 16.438C89.7304 16.438 89.973 16.542 90.1637 16.75C90.3717 16.958 90.4757 17.2007 90.4757 17.478C90.4757 17.842 90.3024 18.1713 89.9557 18.466C89.453 18.9687 88.7857 19.3933 87.9537 19.74C87.1217 20.0867 86.2724 20.26 85.4057 20.26C84.0017 20.26 82.7624 19.9653 81.6877 19.376C80.6304 18.7867 79.807 17.9633 79.2177 16.906C78.6457 15.8487 78.3597 14.6527 78.3597 13.318C78.3597 11.862 78.6544 10.588 79.2437 9.496C79.8504 8.38667 80.639 7.53733 81.6097 6.948C82.5977 6.35867 83.655 6.064 84.7817 6.064C85.891 6.064 86.931 6.35 87.9017 6.922C88.8724 7.494 89.6524 8.28267 90.2417 9.288C90.831 10.2933 91.1344 11.42 91.1517 12.668ZM84.7817 8.352C83.811 8.352 82.9704 8.62933 82.2597 9.184C81.549 9.72133 81.081 10.562 80.8557 11.706H88.5257V11.498C88.439 10.5793 88.023 9.82533 87.2777 9.236C86.5497 8.64667 85.7177 8.352 84.7817 8.352ZM104.293 6.246C104.622 6.246 104.9 6.35867 105.125 6.584C105.35 6.792 105.463 7.04333 105.463 7.338C105.463 7.494 105.402 7.71067 105.281 7.988L100.341 19.22C100.237 19.4453 100.09 19.6273 99.8989 19.766C99.7082 19.9047 99.5002 19.9827 99.2749 20C98.9975 20.0347 98.7375 19.9827 98.4949 19.844C98.2695 19.7053 98.0962 19.4973 97.9749 19.22L93.0349 7.988C92.9482 7.728 92.9049 7.51133 92.9049 7.338C92.9049 7.06067 93.0175 6.80933 93.2429 6.584C93.4682 6.35867 93.7629 6.246 94.1269 6.246C94.3869 6.246 94.6209 6.31533 94.8289 6.454C95.0369 6.57533 95.2015 6.766 95.3229 7.026L99.2489 16.152L103.175 7.026C103.418 6.506 103.79 6.246 104.293 6.246ZM119.97 12.668C119.953 12.98 119.823 13.2487 119.58 13.474C119.337 13.682 119.051 13.786 118.722 13.786H109.57C109.691 15.0513 110.168 16.0653 111 16.828C111.849 17.5907 112.881 17.972 114.094 17.972C114.926 17.972 115.602 17.8507 116.122 17.608C116.642 17.3653 117.101 17.0533 117.5 16.672C117.76 16.516 118.011 16.438 118.254 16.438C118.549 16.438 118.791 16.542 118.982 16.75C119.19 16.958 119.294 17.2007 119.294 17.478C119.294 17.842 119.121 18.1713 118.774 18.466C118.271 18.9687 117.604 19.3933 116.772 19.74C115.94 20.0867 115.091 20.26 114.224 20.26C112.82 20.26 111.581 19.9653 110.506 19.376C109.449 18.7867 108.625 17.9633 108.036 16.906C107.464 15.8487 107.178 14.6527 107.178 13.318C107.178 11.862 107.473 10.588 108.062 9.496C108.669 8.38667 109.457 7.53733 110.428 6.948C111.416 6.35867 112.473 6.064 113.6 6.064C114.709 6.064 115.749 6.35 116.72 6.922C117.691 7.494 118.471 8.28267 119.06 9.288C119.649 10.2933 119.953 11.42 119.97 12.668ZM113.6 8.352C112.629 8.352 111.789 8.62933 111.078 9.184C110.367 9.72133 109.899 10.562 109.674 11.706H117.344V11.498C117.257 10.5793 116.841 9.82533 116.096 9.236C115.368 8.64667 114.536 8.352 113.6 8.352ZM129.624 6.064C130.075 6.064 130.465 6.18533 130.794 6.428C131.124 6.65333 131.288 6.93933 131.288 7.286C131.288 7.702 131.176 8.02267 130.95 8.248C130.742 8.456 130.482 8.56 130.17 8.56C130.014 8.56 129.78 8.508 129.468 8.404C129.104 8.28267 128.818 8.222 128.61 8.222C128.073 8.222 127.544 8.41267 127.024 8.794C126.522 9.158 126.106 9.66933 125.776 10.328C125.464 10.9693 125.308 11.6887 125.308 12.486V18.752C125.308 19.0987 125.187 19.3933 124.944 19.636C124.719 19.8787 124.424 20 124.06 20C123.696 20 123.402 19.8873 123.176 19.662C122.951 19.4193 122.838 19.116 122.838 18.752V7.624C122.838 7.27733 122.951 6.98267 123.176 6.74C123.419 6.49733 123.714 6.376 124.06 6.376C124.424 6.376 124.719 6.49733 124.944 6.74C125.187 6.98267 125.308 7.27733 125.308 7.624V8.95C125.69 8.10067 126.262 7.416 127.024 6.896C127.787 6.35867 128.654 6.08133 129.624 6.064Z" fill="white"/>
</svg>
