<svg width="33" height="32" viewBox="0 0 33 32" fill="none" xmlns="http://www.w3.org/2000/svg">
<path d="M30.6023 8.16855C29.1356 5.65563 27.1462 3.66615 24.6336 2.19966C22.1205 0.733096 19.377 0 16.4011 0C13.4255 0 10.6811 0.73332 8.16855 2.19966C5.65563 3.66608 3.6663 5.65563 2.19966 8.16855C0.733246 10.6814 0 13.4254 0 16.4006C0 19.9745 1.04269 23.1882 3.12858 26.0425C5.21425 28.8971 7.90863 30.8724 11.2115 31.9685C11.5959 32.0399 11.8806 31.9897 12.0656 31.8193C12.2507 31.6486 12.3432 31.4348 12.3432 31.1788C12.3432 31.1361 12.3395 30.7519 12.3324 30.0257C12.3251 29.2995 12.3216 28.6659 12.3216 28.1253L11.8304 28.2103C11.5173 28.2677 11.1222 28.292 10.6452 28.2851C10.1684 28.2785 9.67349 28.2285 9.16105 28.1356C8.64838 28.0435 8.17154 27.83 7.73016 27.4954C7.289 27.1608 6.97582 26.7229 6.79069 26.1822L6.57715 25.6908C6.4348 25.3637 6.21071 25.0002 5.90456 24.6018C5.59841 24.2031 5.28882 23.9328 4.97564 23.7904L4.82612 23.6834C4.72649 23.6123 4.63404 23.5265 4.54855 23.4269C4.46313 23.3274 4.39917 23.2277 4.35646 23.1279C4.31368 23.0281 4.34913 22.9462 4.4632 22.8819C4.57727 22.8177 4.78341 22.7865 5.08253 22.7865L5.50948 22.8503C5.79423 22.9074 6.14646 23.0778 6.5666 23.3627C6.98652 23.6474 7.33171 24.0175 7.60225 24.4729C7.92987 25.0568 8.32458 25.5017 8.7875 25.8078C9.25006 26.114 9.71642 26.2668 10.1862 26.2668C10.6559 26.2668 11.0616 26.2312 11.4034 26.1603C11.7449 26.0891 12.0652 25.9821 12.3643 25.8398C12.4925 24.8855 12.8413 24.1524 13.4106 23.64C12.5992 23.5547 11.8697 23.4263 11.2217 23.2555C10.5741 23.0846 9.90491 22.8071 9.21453 22.4223C8.52377 22.0381 7.95074 21.5609 7.49529 20.9917C7.03977 20.4222 6.66593 19.6745 6.37429 18.7493C6.08251 17.8238 5.93657 16.7561 5.93657 15.546C5.93657 13.8231 6.49906 12.3569 7.6238 11.1466C7.09692 9.85128 7.14666 8.39915 7.77317 6.79039C8.18605 6.66212 8.79835 6.75838 9.60976 7.07859C10.4213 7.39895 11.0155 7.67339 11.3929 7.90092C11.7704 8.12838 12.0728 8.32114 12.3006 8.47746C13.6249 8.10744 14.9916 7.92239 16.4009 7.92239C17.8102 7.92239 19.1772 8.10744 20.5016 8.47746L21.313 7.96517C21.868 7.62334 22.5233 7.31009 23.2774 7.02533C24.032 6.74073 24.6089 6.66234 25.0078 6.79062C25.6482 8.39945 25.7053 9.85151 25.1782 11.1469C26.3029 12.3571 26.8656 13.8237 26.8656 15.5463C26.8656 16.7563 26.7191 17.8274 26.4278 18.76C26.1361 19.6928 25.759 20.4398 25.2965 21.0024C24.8334 21.565 24.2567 22.0384 23.5663 22.4225C22.8758 22.807 22.2064 23.0845 21.5588 23.2555C20.9109 23.4265 20.1813 23.555 19.3699 23.6404C20.11 24.2808 20.4801 25.2917 20.4801 26.6726V31.1782C20.4801 31.4342 20.5691 31.6479 20.7473 31.8187C20.9252 31.9891 21.2062 32.0393 21.5907 31.9679C24.894 30.8719 27.5884 28.8965 29.674 26.0419C31.7593 23.1876 32.8024 19.9739 32.8024 16.4C32.8017 13.4252 32.068 10.6814 30.6023 8.16855Z" fill="#FFC700"/>
</svg>
