<svg width="33" height="33" viewBox="0 0 33 33" fill="none" xmlns="http://www.w3.org/2000/svg">
<path fill-rule="evenodd" clip-rule="evenodd" d="M0 16.5C0 7.3873 7.3873 0 16.5 0C25.6127 0 33 7.3873 33 16.5C33 25.6127 25.6127 33 16.5 33C7.3873 33 0 25.6127 0 16.5ZM8.45625 13.7156V24.75H11.9625V13.7156H8.45625ZM8.25 10.2094C8.25 11.3438 9.075 12.1688 10.2094 12.1688C11.3438 12.1688 12.1688 11.3438 12.1688 10.2094C12.1688 9.075 11.3438 8.25 10.2094 8.25C9.17813 8.25 8.25 9.075 8.25 10.2094ZM21.2438 24.75H24.5438V17.9438C24.5438 14.5406 22.4812 13.4062 20.5219 13.4062C18.7687 13.4062 17.5312 14.5406 17.2219 15.2625V13.7156H13.9219V24.75H17.4281V18.8719C17.4281 17.325 18.4594 16.5 19.4906 16.5C20.5219 16.5 21.2438 17.0156 21.2438 18.7687V24.75Z" fill="#FFC700"/>
</svg>
