<svg width="32" height="32" viewBox="0 0 32 32" fill="none" xmlns="http://www.w3.org/2000/svg">
<g clip-path="url(#clip0_46_3249)">
<path d="M29.789 2.21222C26.8388 -0.737989 22.038 -0.736825 19.0872 2.21222L13.7363 7.56311C13.2817 8.01775 13.2817 8.75472 13.7363 9.20936C14.191 9.664 14.928 9.664 15.3826 9.20936L20.7335 3.85847C21.7179 2.87468 23.0335 2.33214 24.4376 2.33214C25.8422 2.33214 27.1578 2.87468 28.1422 3.85905C29.1266 4.84343 29.6691 6.15903 29.6691 7.5637C29.6691 8.96778 29.1266 10.2834 28.1422 11.2678L21.1456 18.2661C19.1024 20.3082 15.779 20.3082 13.7358 18.2661C13.2811 17.8114 12.5442 17.8114 12.0895 18.2661C11.6349 18.7207 11.6349 19.4583 12.0895 19.9123C13.5646 21.3874 15.5025 22.125 17.4404 22.125C19.3783 22.125 21.3162 21.3874 22.7913 19.9123L29.789 12.9146C31.2135 11.4907 31.9982 9.59007 31.9982 7.5637C31.9982 5.53674 31.2135 3.63668 29.789 2.21222Z" fill="#FFC700"/>
<path d="M15.7942 23.6154L11.2664 28.1432C10.282 29.1276 8.96644 29.6701 7.56177 29.6701C6.15768 29.6701 4.8415 29.1276 3.85712 28.1432C1.81445 26.1005 1.81445 22.7766 3.85712 20.7339L10.4433 14.1478C11.4277 13.164 12.7433 12.6214 14.1479 12.6214C15.552 12.6214 16.8676 13.164 17.852 14.1478C18.3066 14.6024 19.0436 14.6024 19.4982 14.1478C19.9529 13.6931 19.9529 12.9561 19.4982 12.5015C16.5486 9.55187 11.7478 9.55129 8.79646 12.5015L2.21029 19.0882C0.786414 20.5121 0.00170898 22.4128 0.00170898 24.4391C0.00170898 26.4649 0.786414 28.3656 2.21087 29.7894C3.63475 31.2139 5.53539 31.9986 7.56119 31.9986C9.58756 31.9986 11.4882 31.2139 12.9121 29.7894L17.4398 25.2617C17.8945 24.807 17.8945 24.0701 17.4398 23.6154C16.9852 23.1608 16.2488 23.1608 15.7942 23.6154Z" fill="#FFC700"/>
</g>
<defs>
<clipPath id="clip0_46_3249">
<rect width="32" height="32" fill="white"/>
</clipPath>
</defs>
</svg>
